<?xml version="1.0" encoding="utf-8"?>
<!-- Generator: Adobe Illustrator 23.0.1, SVG Export Plug-In . SVG Version: 6.00 Build 0)  -->
<svg version="1.1" id="Layer_1" xmlns="http://www.w3.org/2000/svg" xmlns:xlink="http://www.w3.org/1999/xlink" x="0px" y="0px"
	 viewBox="0 0 160 600" style="enable-background:new 0 0 160 600;" xml:space="preserve">
<style type="text/css">
	.st0{fill:#EE1D22;}
	.st1{fill:#FFFFFF;}
</style>
<g>
	<path class="st0" d="M14.7,111c0,0-4.9,0-4.9,4.9v17.5c0,0,0,4.9,4.9,4.9h130.9c0,0,4.9,0,4.9-4.9v-17.5c0,0,0-4.9-4.9-4.9H14.7z"
		/>
</g>
<g>
	<path class="st1" d="M19.3,126.9h2.2c0,1,0.8,1.4,1.8,1.4c0.8,0,1.5-0.3,1.5-1.1c0-0.6-0.7-0.9-2.6-1.3c-2-0.4-2.8-1.1-2.8-2.3
		c0-1.8,1.3-2.7,3.7-2.7c2.3,0,3.6,1,3.7,2.7h-2.2c-0.1-0.8-0.6-1.1-1.6-1.1c-0.9,0-1.3,0.3-1.3,0.8c0,0.5,0.5,0.8,1.8,1.1
		c1.7,0.3,2.4,0.6,2.8,1c0.4,0.4,0.7,0.9,0.7,1.5c0,2.2-1.9,2.9-3.9,2.9C21,129.9,19.4,128.9,19.3,126.9z"/>
	<path class="st1" d="M28.1,118h2.3v4.4h0C31,121.5,32,121,33,121c2.1,0,3.1,1.1,3.1,3.4v5.3h-2.3v-4.8c0-1.4-0.4-2-1.5-2
		c-1.4,0-1.8,0.9-1.8,2.4v4.4h-2.3V118z"/>
	<path class="st1" d="M37.2,125.4c0-2.7,1.7-4.5,4.4-4.5c2.7,0,4.4,1.8,4.4,4.5c0,2.7-1.8,4.5-4.4,4.5
		C38.9,129.9,37.2,128.1,37.2,125.4z M43.6,125.4c0-1.4-0.5-2.7-2.1-2.7c-1.3,0-2,1-2,2.7c0,1.7,0.7,2.7,2,2.7
		C42.9,128.1,43.6,127.1,43.6,125.4z"/>
	<path class="st1" d="M47.1,121.2h2.2v1.1h0c0.6-0.9,1.4-1.3,2.5-1.3c2.6,0,3.8,2,3.8,4.6c0,2.3-1.3,4.4-3.7,4.4c-1,0-2-0.5-2.5-1.3
		h0v4h-2.3V121.2z M53.4,125.4c0-1.3-0.5-2.7-2-2.7c-1.3,0-2,1-2,2.7c0,1.5,0.6,2.7,2,2.7C52.8,128.1,53.4,126.9,53.4,125.4z"/>
	<path class="st1" d="M63.1,128.6L63.1,128.6l0,1.1h-2.2V118h2.3v4.3h0c0.5-0.8,1.5-1.3,2.7-1.3c1.7,0,3.5,1.4,3.5,4.5
		c0,3-1.7,4.5-3.5,4.5C64.5,129.9,63.5,129.4,63.1,128.6z M67,125.4c0-1.5-0.6-2.7-2-2.7c-1.3,0-2,1.2-2,2.7c0,1.6,0.7,2.7,2,2.7
		C66.4,128.1,67,126.9,67,125.4z"/>
	<path class="st1" d="M70.1,127.3c0-0.8,0.3-1.4,0.7-1.8c0.5-0.5,1.3-0.7,2.7-0.9c1.5-0.2,2.2-0.3,2.2-1c0-1-0.7-1.1-1.5-1.1
		c-1,0-1.5,0.4-1.6,1.3h-2.3c0.1-1.9,1.6-2.8,4-2.8c2.5,0,3.7,0.8,3.7,2.4v4.1c0,0.6,0.1,0.7,0.6,0.7h0.1v1.5
		c-0.2,0.1-0.5,0.2-1,0.2c-1.1,0-1.6-0.3-1.8-1.1c-0.6,0.7-1.5,1.2-2.9,1.2C71.2,129.9,70.1,129,70.1,127.3z M75.7,126.4v-0.9
		c-0.2,0.2-0.6,0.3-1.4,0.4c-1.2,0.1-1.9,0.4-1.9,1.3c0,0.7,0.4,1.1,1.4,1.1C75.1,128.3,75.7,127.6,75.7,126.4z"/>
	<path class="st1" d="M79,125.5c0-2.7,1.6-4.6,4.3-4.6c2.2,0,3.9,1.2,4,3.2h-2.3c-0.1-1-0.7-1.5-1.7-1.5c-1.4,0-2,1.4-2,2.8
		c0,1.4,0.6,2.7,1.9,2.7c1,0,1.7-0.6,1.8-1.7h2.2c-0.3,2.2-1.8,3.5-4.1,3.5C80.7,129.9,79,128,79,125.5z"/>
	<path class="st1" d="M88.3,118h2.3v6.3l2.9-3h2.8l-3.2,3.1l3.6,5.4h-2.8l-2.3-3.8l-0.9,0.9v2.9h-2.3V118z"/>
	<path class="st1" d="M97.1,121.2h2.2v1.1h0c0.6-0.9,1.4-1.3,2.5-1.3c2.6,0,3.8,2,3.8,4.6c0,2.3-1.3,4.4-3.7,4.4c-1,0-2-0.5-2.5-1.3
		h0v4h-2.3V121.2z M103.4,125.4c0-1.3-0.5-2.7-2-2.7c-1.3,0-2,1-2,2.7c0,1.5,0.6,2.7,2,2.7C102.8,128.1,103.4,126.9,103.4,125.4z"/>
	<path class="st1" d="M106.4,127.3c0-0.8,0.3-1.4,0.7-1.8c0.5-0.5,1.3-0.7,2.7-0.9c1.5-0.2,2.2-0.3,2.2-1c0-1-0.7-1.1-1.5-1.1
		c-1,0-1.5,0.4-1.6,1.3h-2.3c0.1-1.9,1.6-2.8,4-2.8c2.5,0,3.7,0.8,3.7,2.4v4.1c0,0.6,0.1,0.7,0.6,0.7h0.1v1.5
		c-0.2,0.1-0.5,0.2-1,0.2c-1.1,0-1.6-0.3-1.8-1.1c-0.6,0.7-1.5,1.2-2.9,1.2C107.5,129.9,106.4,129,106.4,127.3z M112,126.4v-0.9
		c-0.2,0.2-0.6,0.3-1.4,0.4c-1.2,0.1-1.9,0.4-1.9,1.3c0,0.7,0.4,1.1,1.4,1.1C111.3,128.3,112,127.6,112,126.4z"/>
	<path class="st1" d="M115.3,125.5c0-2.7,1.6-4.6,4.3-4.6c2.2,0,3.9,1.2,4,3.2h-2.3c-0.1-1-0.7-1.5-1.7-1.5c-1.4,0-2,1.4-2,2.8
		c0,1.4,0.6,2.7,1.9,2.7c1,0,1.7-0.6,1.9-1.7h2.2c-0.3,2.2-1.8,3.5-4.1,3.5C116.9,129.9,115.3,128,115.3,125.5z"/>
	<path class="st1" d="M124.5,118h2.3v6.3l2.9-3h2.8l-3.2,3.1l3.6,5.4h-2.8l-2.3-3.8l-0.9,0.9v2.9h-2.3V118z"/>
	<path class="st1" d="M132.6,126.9h2.2c0,1,0.8,1.4,1.8,1.4c0.8,0,1.5-0.3,1.5-1.1c0-0.6-0.7-0.9-2.6-1.3c-2-0.4-2.8-1.1-2.8-2.3
		c0-1.8,1.3-2.7,3.7-2.7c2.3,0,3.6,1,3.7,2.7H138c-0.1-0.8-0.6-1.1-1.6-1.1c-0.9,0-1.3,0.3-1.3,0.8c0,0.5,0.5,0.8,1.8,1.1
		c1.7,0.3,2.4,0.6,2.8,1c0.4,0.4,0.7,0.9,0.7,1.5c0,2.2-1.9,2.9-3.9,2.9C134.3,129.9,132.7,128.9,132.6,126.9z"/>
</g>
</svg>
