<?xml version="1.0" encoding="utf-8"?>
<!-- Generator: Adobe Illustrator 23.0.1, SVG Export Plug-In . SVG Version: 6.00 Build 0)  -->
<svg version="1.1" id="Layer_1" xmlns="http://www.w3.org/2000/svg" xmlns:xlink="http://www.w3.org/1999/xlink" x="0px" y="0px"
	 viewBox="0 0 160 600" style="enable-background:new 0 0 160 600;" xml:space="preserve">
<style type="text/css">
	.st0{clip-path:url(#SVGID_2_);fill:#EE1D22;}
	.st1{fill:#231F20;}
	.st2{fill:#FFFFFF;}
</style>
<g>
	<g>
		<g>
			<g>
				<g>
					<g>
						<g>
							<g>
								<defs>
									<rect id="SVGID_1_" x="116.1" y="555.4" width="34.6" height="34.6"/>
								</defs>
								<clipPath id="SVGID_2_">
									<use xlink:href="#SVGID_1_"  style="overflow:visible;"/>
								</clipPath>
								<path class="st0" d="M139.2,572.7c0,3.2-2.6,5.8-5.8,5.8s-5.8-2.6-5.8-5.8s2.6-5.8,5.8-5.8S139.2,569.5,139.2,572.7
									 M133.4,584.2c6.4,0,11.5-5.2,11.5-11.5c0-6.4-5.2-11.5-11.5-11.5c-6.4,0-11.5,5.2-11.5,11.5
									C121.9,579.1,127,584.2,133.4,584.2 M116.1,572.7c0-9.5,7.7-17.3,17.3-17.3c9.5,0,17.3,7.7,17.3,17.3
									c0,9.5-7.7,17.3-17.3,17.3C123.9,590,116.1,582.3,116.1,572.7"/>
							</g>
						</g>
					</g>
				</g>
			</g>
		</g>
	</g>
</g>
<g>
	<path class="st1" d="M14.8,37.7L14.8,37.7l-0.1,1.8h-3.6V20.2H15v7l0,0c0.8-1.3,2.4-2.1,4.4-2.1c2.8,0,5.8,2.3,5.8,7.3
		c0,4.9-2.8,7.4-5.8,7.4C17.2,39.9,15.6,39.1,14.8,37.7z M21.4,32.5c0-2.5-1.1-4.5-3.3-4.5c-2.1,0-3.2,1.9-3.2,4.5S16,37,18.1,37
		C20.3,37,21.4,35,21.4,32.5z"/>
	<path class="st1" d="M26.4,35.7c0-1.3,0.4-2.3,1.2-3c0.9-0.8,2.2-1.2,4.5-1.4c2.5-0.3,3.6-0.5,3.6-1.7c0-1.6-1.2-1.9-2.5-1.9
		c-1.6,0-2.4,0.6-2.6,2.1h-3.8c0.2-3.1,2.7-4.7,6.6-4.7c4.1,0,6.1,1.4,6.1,4v6.7c0,0.9,0.2,1.1,1,1.1h0.1v2.5
		c-0.4,0.2-0.8,0.3-1.6,0.3c-1.8,0-2.7-0.5-3-1.8c-0.9,1.1-2.5,1.9-4.9,1.9C28.3,39.9,26.4,38.4,26.4,35.7z M35.7,34.1v-1.5
		c-0.4,0.3-1,0.5-2.3,0.7c-2,0.2-3.1,0.7-3.1,2.2c0,1.1,0.7,1.8,2.3,1.8C34.6,37.3,35.7,36.2,35.7,34.1z"/>
	<path class="st1" d="M41.1,32.7c0-4.5,2.7-7.6,7.1-7.6c3.6,0,6.4,1.9,6.6,5.3H51c-0.2-1.6-1.2-2.4-2.8-2.4c-2.3,0-3.3,2.3-3.3,4.5
		c0,2.3,0.9,4.4,3.2,4.4c1.7,0,2.8-1,3.1-2.8h3.7c-0.5,3.7-3,5.7-6.7,5.7C43.8,39.9,41.1,36.8,41.1,32.7z"/>
	<path class="st1" d="M56.4,20.2h3.8v10.3l4.8-5h4.5l-5.3,5.1l5.9,8.8h-4.6l-3.8-6.2l-1.5,1.4v4.8h-3.8V20.2z"/>
	<path class="st1" d="M70.9,25.5h3.6v1.8h0.1c0.9-1.5,2.3-2.2,4.2-2.2c4.2,0,6.3,3.3,6.3,7.5c0,3.8-2.1,7.2-6.1,7.2
		c-1.7,0-3.3-0.8-4.2-2.1h-0.1v6.6h-3.8V25.5z M81.3,32.6c0-2.1-0.8-4.5-3.4-4.5c-2.1,0-3.3,1.7-3.3,4.5c0,2.5,1,4.4,3.3,4.4
		C80.3,37,81.3,35,81.3,32.6z"/>
	<path class="st1" d="M86.2,35.7c0-1.3,0.4-2.3,1.2-3c0.9-0.8,2.2-1.2,4.5-1.4c2.5-0.3,3.6-0.5,3.6-1.7c0-1.6-1.2-1.9-2.5-1.9
		c-1.6,0-2.4,0.6-2.6,2.1h-3.8c0.2-3.1,2.7-4.7,6.6-4.7c4.1,0,6.1,1.4,6.1,4v6.7c0,0.9,0.2,1.1,1,1.1h0.1v2.5
		c-0.4,0.2-0.8,0.3-1.6,0.3c-1.8,0-2.7-0.5-3-1.8c-0.9,1.1-2.5,1.9-4.9,1.9C88.1,39.9,86.2,38.4,86.2,35.7z M95.5,34.1v-1.5
		c-0.4,0.3-1,0.5-2.3,0.7c-2,0.2-3.1,0.7-3.1,2.2c0,1.1,0.7,1.8,2.3,1.8C94.4,37.3,95.5,36.2,95.5,34.1z"/>
	<path class="st1" d="M100.9,32.7c0-4.5,2.7-7.6,7.1-7.6c3.6,0,6.4,1.9,6.6,5.3h-3.8c-0.2-1.6-1.2-2.4-2.8-2.4
		c-2.3,0-3.3,2.3-3.3,4.5c0,2.3,0.9,4.4,3.2,4.4c1.7,0,2.8-1,3-2.8h3.7c-0.5,3.7-3,5.7-6.7,5.7C103.6,39.9,100.9,36.8,100.9,32.7z"
		/>
	<path class="st1" d="M116.2,20.2h3.8v10.3l4.8-5h4.5l-5.3,5.1l5.9,8.8h-4.6l-3.8-6.2l-1.5,1.4v4.8h-3.8
		C116.2,39.4,116.2,20.2,116.2,20.2z"/>
	<path class="st1" d="M129.5,35h3.6c0,1.6,1.3,2.3,2.9,2.3c1.3,0,2.5-0.6,2.5-1.8c0-1-1.2-1.5-4.2-2.1c-3.2-0.7-4.6-1.8-4.6-3.8
		c0-3,2.2-4.5,6.1-4.5c3.8,0,5.9,1.6,6.2,4.5h-3.6c-0.1-1.4-1-1.9-2.6-1.9c-1.5,0-2.1,0.5-2.1,1.3c0,0.9,0.8,1.3,3,1.8
		c2.8,0.6,3.9,1,4.7,1.7c0.7,0.6,1.1,1.5,1.1,2.5c0,3.6-3.1,4.9-6.4,4.9C132.2,39.9,129.6,38.3,129.5,35z"/>
</g>
<g>
	<path class="st1" d="M12,55.1H9.7v-2.6H12v-1c0-2.9,1.9-4.3,4.7-4.3c0.3,0,0.9,0,2,0.1v2.9c-0.5-0.1-1-0.1-1.4-0.1
		c-1.1,0-1.5,0.4-1.5,1.6v0.8h2.6v2.6h-2.6v11.4H12V55.1z"/>
	<path class="st1" d="M19.5,52.5h3.6v2.6h0.1c0.7-1.8,2.5-3,4.5-3c0.4,0,0.6,0.1,0.8,0.1v3.6c-0.4-0.1-0.8-0.1-1.4-0.1
		c-2.8,0-3.8,1.9-3.8,4.5v6.3h-3.8C19.5,66.5,19.5,52.5,19.5,52.5z"/>
	<path class="st1" d="M28.7,59.5c0-4.5,2.8-7.4,7.2-7.4s7.2,2.9,7.2,7.4s-2.9,7.3-7.2,7.3C31.5,66.9,28.7,63.9,28.7,59.5z
		 M39.3,59.5c0-2.3-0.8-4.5-3.4-4.5c-2.1,0-3.3,1.6-3.3,4.5c0,2.8,1.2,4.5,3.4,4.5S39.3,62.3,39.3,59.5z"/>
	<path class="st1" d="M44.7,52.5h3.6v1.9h0.1c1.1-1.5,2.5-2.3,4.3-2.3c2.1,0,3.4,0.9,4.1,2.3c1-1.5,2.5-2.3,4.2-2.3
		c3.5,0,5.1,1.9,5.1,5v9.4h-3.8v-8.1c0-1.8-0.3-3.2-2.3-3.2c-1.8,0-2.6,1.3-2.6,3.5v7.8h-3.8v-8.2c0-1.8-0.3-3.1-2.3-3.1
		c-0.9,0-2.6,0.6-2.6,3.2v8.1h-3.8v-14H44.7z"/>
	<path class="st1" d="M79.5,66.1c-3.6-0.2-5.6-2.2-5.9-5.9H77c0.1,1.9,0.9,2.9,2.5,3.1v-4.8c-3.1-0.8-5.5-1.7-5.5-5.1
		c0-3,2.3-4.8,5.5-5.1v-1.8h1.4v1.8c3.2,0.4,5.2,2.1,5.3,5h-3.4c0-1.2-0.9-2.3-2-2.3v4.2c4.4,1,5.9,2.4,5.9,5.6
		c0,2.1-1.6,4.9-5.9,5.2v2h-1.4L79.5,66.1L79.5,66.1z M79.5,51.1c-1.2,0-2.1,0.8-2.1,2c0,1.1,0.7,1.5,2.1,1.9V51.1z M83.5,61
		c0-1-0.7-1.6-2.6-2.1v4.4C82.4,63.2,83.5,62.3,83.5,61z"/>
	<path class="st1" d="M93.2,54.2h-4.8v-2.9h0.3c3.1,0,4.9-1.3,5.3-3.8h3v18.9h-3.8V54.2z"/>
	<path class="st1" d="M110.4,51.2h-9v-3.6h12.9v3.3c-3.9,3.5-6.1,10.4-6.2,15.6H104C104.5,60.9,106.8,55.5,110.4,51.2z"/>
</g>
<g>
	<path class="st1" d="M115.7,52.2l1.1-1.5l-1.7-0.6l0.4-1.2l1.7,0.7v-1.9h1.2v1.9l1.7-0.7l0.4,1.2l-1.8,0.6l1.1,1.5l-1,0.7l-1.1-1.5
		l-1,1.5L115.7,52.2z"/>
</g>
<g>
	<path class="st1" d="M11.6,91.4v-7.1H9.8v-1.1h1.8v-3.1h1.3v3.1H15v1.1h-2.1v7c0,0.9,0.3,1.3,1.2,1.3c0.2,0,0.6,0,0.9-0.1v1.1
		c-0.5,0-0.7,0-1.1,0C12.2,93.6,11.6,93.1,11.6,91.4z"/>
	<path class="st1" d="M16.3,79.2h1.3V85l0,0c0.5-1.2,1.8-2.1,3.3-2.1c2.6,0,3.8,1.3,3.8,3.9v6.7h-1.3V87c0-2.1-0.9-3.1-2.6-3.1
		c-2.3,0-3.2,1.9-3.2,3.6v5.9h-1.3C16.3,93.4,16.3,79.2,16.3,79.2z"/>
	<path class="st1" d="M26.2,80.2c0-0.6,0.5-1.1,1-1.1s1,0.5,1,1.1s-0.4,1.1-1,1.1S26.2,80.8,26.2,80.2z M26.6,83.2h1.3v10.3h-1.3
		V83.2z"/>
	<path class="st1" d="M29.2,90.2h1.3c0.1,1.6,1.3,2.6,3,2.6c1.3,0,2.8-0.6,2.8-1.9c0-1.1-0.8-1.6-2.4-1.9l-1.3-0.3
		c-2-0.5-3-1.2-3-2.8c0-2.1,2.1-2.9,3.9-2.9c2.2,0,3.7,1.2,3.8,3.3H36c0-1.4-1.1-2.3-2.7-2.3c-1.2,0-2.4,0.5-2.4,1.8
		c0,0.9,0.8,1.4,2.3,1.8l1.3,0.3c1.1,0.2,3.1,0.8,3.1,2.9c0,2.2-2.2,3.1-4.1,3.1C30.9,93.8,29.4,92.6,29.2,90.2z"/>
	<path class="st1" d="M43,83.2h1.3L47,92l0,0l2.5-8.8h1.4l2.5,8.8l0,0l2.6-8.8h1.3L54,93.5h-1.4l-2.5-8.7l0,0l-2.5,8.7h-1.4L43,83.2
		z"/>
	<path class="st1" d="M57.5,88.3c0-2.8,1.5-5.5,4.7-5.5c2.9,0,4.5,2.3,4.5,5.5v0.3h-7.9c0,2,1.1,4.1,3.4,4.1c1.7,0,2.8-0.9,3.2-2.6
		h1.3c-0.6,2.5-2.1,3.7-4.5,3.7C59.1,93.8,57.5,91.5,57.5,88.3z M65.5,87.6c-0.1-1.9-1.3-3.7-3.3-3.7c-1.8,0-3.1,1.4-3.4,3.7H65.5z"
		/>
	<path class="st1" d="M67.4,88.3c0-2.8,1.5-5.5,4.7-5.5c2.9,0,4.5,2.3,4.5,5.5v0.3h-7.9c0,2,1.1,4.1,3.4,4.1c1.7,0,2.8-0.9,3.2-2.6
		h1.3c-0.6,2.5-2.1,3.7-4.5,3.7C69,93.8,67.4,91.5,67.4,88.3z M75.3,87.6c-0.1-1.9-1.3-3.7-3.3-3.7c-1.8,0-3.1,1.4-3.4,3.7H75.3z"/>
	<path class="st1" d="M77.8,79.2h1.3v9l5.7-5h1.7L82.1,87l4.7,6.5h-1.6l-4.1-5.6l-2,1.7v3.9h-1.3C77.8,93.5,77.8,79.2,77.8,79.2z"/>
	<path class="st1" d="M91.8,88.3c0-3,1.8-5.5,4.9-5.5s4.9,2.5,4.9,5.5s-1.8,5.5-4.9,5.5S91.8,91.3,91.8,88.3z M100.3,88.3
		c0-2.2-1.2-4.4-3.6-4.4c-2.3,0-3.6,2.1-3.6,4.4s1.3,4.4,3.6,4.4C99.1,92.7,100.3,90.5,100.3,88.3z"/>
	<path class="st1" d="M103,83.2h1.3V85l0,0c0.5-1.2,1.8-2.1,3.3-2.1c2.6,0,3.8,1.3,3.8,3.9v6.7h-1.3V87c0-2-0.8-3.1-2.6-3.1
		c-2.2,0-3.2,1.8-3.2,3.6v5.9H103V83.2z"/>
	<path class="st1" d="M113.3,79.2h1.3v14.3h-1.3V79.2z"/>
	<path class="st1" d="M116.3,97.2v-1.1c0.1,0,0.5,0.1,0.9,0.1c0.6,0,0.9-0.2,1.2-0.5c0.3-0.4,0.5-0.8,1-2.3l-4.1-10.3h1.3L120,92
		l3.2-8.8h1.3L120,95.1c-0.2,0.6-0.6,1.3-1,1.7c-0.4,0.4-0.9,0.5-1.7,0.5C116.9,97.3,116.5,97.3,116.3,97.2z"/>
	<path class="st1" d="M125.3,92.4c0-0.6,0.5-1.2,1.1-1.2s1.1,0.5,1.1,1.2c0,0.6-0.5,1.2-1.1,1.2S125.3,93,125.3,92.4z M125.7,83.5
		v-4.3h1.4v4.3l-0.3,6.5H126L125.7,83.5z"/>
</g>
<g>
	<path class="st2" d="M10.8,575.2l0.6-0.8l-0.9-0.3l0.2-0.6l0.9,0.4v-1h0.6v1l0.9-0.4l0.2,0.6l-0.9,0.3l0.6,0.8l-0.5,0.4l-0.6-0.8
		l-0.6,0.8L10.8,575.2z"/>
	<path class="st2" d="M13.9,574.5H15v0.8h0c0.2-0.5,0.8-0.9,1.3-0.9c0.1,0,0.2,0,0.2,0v1.1c-0.1,0-0.2,0-0.4,0
		c-0.8,0-1.1,0.6-1.1,1.3v1.9h-1.1V574.5z"/>
	<path class="st2" d="M16.7,576.5c0-1.2,0.9-2.2,2.1-2.2c1.3,0,2,1,2,2.2l0,0.2h-3c0,0.7,0.4,1,1,1c0.4,0,0.8-0.2,0.9-0.5h1
		c-0.3,0.9-0.9,1.4-1.9,1.4C17.5,578.7,16.7,577.8,16.7,576.5z M19.6,576.1c-0.1-0.6-0.4-0.9-0.9-0.9c-0.6,0-0.9,0.3-0.9,0.9H19.6z"
		/>
	<path class="st2" d="M21.2,577.3h1.1c0,0.5,0.4,0.7,0.9,0.7c0.4,0,0.7-0.2,0.7-0.5c0-0.3-0.4-0.4-1.2-0.6c-1-0.2-1.4-0.5-1.4-1.1
		c0-0.9,0.6-1.3,1.8-1.3c1.1,0,1.8,0.5,1.8,1.3h-1.1c0-0.4-0.3-0.6-0.8-0.6c-0.4,0-0.6,0.1-0.6,0.4c0,0.3,0.2,0.4,0.9,0.5
		c0.8,0.2,1.2,0.3,1.4,0.5c0.2,0.2,0.3,0.4,0.3,0.7c0,1.1-0.9,1.4-1.9,1.4C22,578.7,21.2,578.2,21.2,577.3z"/>
	<path class="st2" d="M25.9,577.6v-2.4h-0.7v-0.8h0.7v-1.2H27v1.2h0.8v0.8H27v2c0,0.4,0.1,0.5,0.5,0.5c0.1,0,0.3,0,0.4,0v0.9
		c-0.2,0-0.4,0-0.7,0C26.3,578.6,25.9,578.4,25.9,577.6z"/>
	<path class="st2" d="M28.3,574.5h1.1v0.8h0c0.2-0.5,0.8-0.9,1.3-0.9c0.1,0,0.2,0,0.2,0v1.1c-0.1,0-0.2,0-0.4,0
		c-0.8,0-1.1,0.6-1.1,1.3v1.9h-1.1V574.5z"/>
	<path class="st2" d="M31.4,573.4c0-0.4,0.3-0.6,0.6-0.6c0.4,0,0.6,0.3,0.6,0.6S32.4,574,32,574C31.7,574,31.4,573.7,31.4,573.4z
		 M31.4,574.5h1.1v4.1h-1.1V574.5z"/>
	<path class="st2" d="M33.3,576.6c0-1.3,0.8-2.2,2.1-2.2c1.1,0,1.9,0.6,1.9,1.6h-1.1c-0.1-0.5-0.4-0.7-0.8-0.7c-0.7,0-1,0.7-1,1.3
		c0,0.7,0.3,1.3,0.9,1.3c0.5,0,0.8-0.3,0.9-0.8h1.1c-0.2,1.1-0.9,1.7-2,1.7C34.1,578.7,33.3,577.8,33.3,576.6z"/>
	<path class="st2" d="M38.2,577.6v-2.4h-0.7v-0.8h0.7v-1.2h1.1v1.2h0.8v0.8h-0.8v2c0,0.4,0.1,0.5,0.5,0.5c0.1,0,0.3,0,0.4,0v0.9
		c-0.2,0-0.4,0-0.7,0C38.6,578.6,38.2,578.4,38.2,577.6z"/>
	<path class="st2" d="M40.6,573.4c0-0.4,0.3-0.6,0.6-0.6c0.4,0,0.6,0.3,0.6,0.6s-0.3,0.6-0.6,0.6C40.9,574,40.6,573.7,40.6,573.4z
		 M40.7,574.5h1.1v4.1h-1.1V574.5z"/>
	<path class="st2" d="M42.5,576.5c0-1.3,0.8-2.2,2.1-2.2c1.3,0,2.1,0.9,2.1,2.2c0,1.3-0.9,2.2-2.1,2.2
		C43.4,578.7,42.5,577.8,42.5,576.5z M45.7,576.5c0-0.7-0.2-1.3-1-1.3c-0.6,0-1,0.5-1,1.3c0,0.8,0.4,1.3,1,1.3
		C45.3,577.9,45.7,577.4,45.7,576.5z"/>
	<path class="st2" d="M47.4,574.5h1.1v0.6h0c0.3-0.4,0.7-0.7,1.3-0.7c1,0,1.5,0.5,1.5,1.7v2.6h-1.1v-2.3c0-0.7-0.2-1-0.7-1
		c-0.7,0-0.9,0.5-0.9,1.2v2.2h-1.1V574.5z"/>
	<path class="st2" d="M51.9,577.3h1.1c0,0.5,0.4,0.7,0.9,0.7c0.4,0,0.7-0.2,0.7-0.5c0-0.3-0.4-0.4-1.2-0.6c-1-0.2-1.4-0.5-1.4-1.1
		c0-0.9,0.6-1.3,1.8-1.3c1.1,0,1.8,0.5,1.8,1.3h-1.1c0-0.4-0.3-0.6-0.8-0.6c-0.4,0-0.6,0.1-0.6,0.4c0,0.3,0.2,0.4,0.9,0.5
		c0.8,0.2,1.2,0.3,1.4,0.5c0.2,0.2,0.3,0.4,0.3,0.7c0,1.1-0.9,1.4-1.9,1.4C52.7,578.7,51.9,578.2,51.9,577.3z"/>
	<path class="st2" d="M58.4,574.5h1.1v0.6h0c0.3-0.5,0.8-0.7,1.3-0.7c0.6,0,1,0.3,1.2,0.7c0.3-0.4,0.8-0.7,1.3-0.7
		c1,0,1.5,0.6,1.5,1.5v2.8h-1.1v-2.4c0-0.5-0.1-1-0.7-1c-0.5,0-0.8,0.4-0.8,1v2.3H61v-2.4c0-0.5-0.1-0.9-0.7-0.9
		c-0.3,0-0.8,0.2-0.8,0.9v2.4h-1.1V574.5z"/>
	<path class="st2" d="M65.4,577.5c0-0.4,0.1-0.7,0.4-0.9c0.3-0.2,0.6-0.3,1.3-0.4c0.7-0.1,1.1-0.1,1.1-0.5c0-0.5-0.3-0.6-0.7-0.6
		c-0.5,0-0.7,0.2-0.8,0.6h-1.1c0-0.9,0.8-1.4,2-1.4c1.2,0,1.8,0.4,1.8,1.2v2c0,0.3,0,0.3,0.3,0.3h0v0.7c-0.1,0-0.2,0.1-0.5,0.1
		c-0.5,0-0.8-0.2-0.9-0.5c-0.3,0.3-0.8,0.6-1.4,0.6C65.9,578.7,65.4,578.3,65.4,577.5z M68.1,577v-0.4c-0.1,0.1-0.3,0.2-0.7,0.2
		c-0.6,0.1-0.9,0.2-0.9,0.6c0,0.3,0.2,0.5,0.7,0.5C67.8,578,68.1,577.6,68.1,577z"/>
	<path class="st2" d="M69.9,580v-0.9c0.2,0,0.4,0,0.6,0c0.3,0,0.5-0.2,0.5-0.5c0-0.1,0-0.1,0-0.3l-1.5-3.9h1.2l0.9,2.8h0l0.9-2.8
		h1.2l-1.7,4.7c-0.2,0.6-0.6,0.9-1.4,0.9C70.4,580.1,70.2,580,69.9,580z"/>
	<path class="st2" d="M76.1,577.5c0-0.4,0.1-0.7,0.4-0.9c0.3-0.2,0.6-0.3,1.3-0.4c0.7-0.1,1.1-0.1,1.1-0.5c0-0.5-0.3-0.6-0.7-0.6
		c-0.5,0-0.7,0.2-0.8,0.6h-1.1c0-0.9,0.8-1.4,2-1.4c1.2,0,1.8,0.4,1.8,1.2v2c0,0.3,0,0.3,0.3,0.3h0v0.7c-0.1,0-0.2,0.1-0.5,0.1
		c-0.5,0-0.8-0.2-0.9-0.5c-0.3,0.3-0.8,0.6-1.4,0.6C76.6,578.7,76.1,578.3,76.1,577.5z M78.8,577v-0.4c-0.1,0.1-0.3,0.2-0.7,0.2
		c-0.6,0.1-0.9,0.2-0.9,0.6c0,0.3,0.2,0.5,0.7,0.5C78.5,578,78.8,577.6,78.8,577z"/>
	<path class="st2" d="M80.8,574.5h1.1v0.5h0c0.3-0.4,0.7-0.6,1.2-0.6c1.3,0,1.9,1,1.9,2.2c0,1.1-0.6,2.1-1.8,2.1
		c-0.5,0-1-0.2-1.2-0.6h0v2h-1.1V574.5z M83.8,576.5c0-0.6-0.2-1.3-1-1.3c-0.6,0-1,0.5-1,1.3c0,0.7,0.3,1.3,1,1.3
		C83.6,577.9,83.8,577.3,83.8,576.5z"/>
	<path class="st2" d="M85.6,574.5h1.1v0.5h0c0.3-0.4,0.7-0.6,1.2-0.6c1.3,0,1.9,1,1.9,2.2c0,1.1-0.6,2.1-1.8,2.1
		c-0.5,0-1-0.2-1.2-0.6h0v2h-1.1V574.5z M88.6,576.5c0-0.6-0.2-1.3-1-1.3c-0.6,0-1,0.5-1,1.3c0,0.7,0.3,1.3,1,1.3
		C88.4,577.9,88.6,577.3,88.6,576.5z"/>
	<path class="st2" d="M90.4,572.9h1.1v5.7h-1.1V572.9z"/>
	<path class="st2" d="M92.3,580v-0.9c0.2,0,0.4,0,0.6,0c0.3,0,0.5-0.2,0.5-0.5c0-0.1,0-0.1,0-0.3l-1.5-3.9h1.2l0.9,2.8h0l0.9-2.8
		h1.2l-1.7,4.7c-0.2,0.6-0.6,0.9-1.4,0.9C92.7,580.1,92.5,580,92.3,580z"/>
</g>
</svg>
