<?xml version="1.0" encoding="utf-8"?>
<!-- Generator: Adobe Illustrator 23.0.1, SVG Export Plug-In . SVG Version: 6.00 Build 0)  -->
<svg version="1.1" id="Layer_1" xmlns="http://www.w3.org/2000/svg" xmlns:xlink="http://www.w3.org/1999/xlink" x="0px" y="0px"
	 viewBox="0 0 728 90" style="enable-background:new 0 0 728 90;" xml:space="preserve">
<style type="text/css">
	.st0{fill:#EE1D22;}
	.st1{fill:#FFFFFF;}
</style>
<g>
	<path class="st0" d="M576.2,30.3c0,0-5.4,0-5.4,5.4v19.2c0,0,0,5.4,5.4,5.4H706c0,0,5.4,0,5.4-5.4V35.7c0,0,0-5.4-5.4-5.4H576.2z"
		/>
</g>
<g>
	<path class="st1" d="M584.5,47.8h2.4c0,1,0.9,1.6,2,1.6c0.9,0,1.7-0.4,1.7-1.2c0-0.7-0.8-1-2.8-1.4c-2.2-0.5-3-1.2-3-2.5
		c0-2,1.4-3,4.1-3c2.5,0,3.9,1,4.1,3h-2.4c-0.1-0.9-0.7-1.3-1.7-1.3c-1,0-1.4,0.3-1.4,0.9c0,0.6,0.6,0.9,2,1.2
		c1.9,0.4,2.6,0.6,3.1,1.1c0.5,0.4,0.7,1,0.7,1.7c0,2.4-2.1,3.2-4.2,3.2C586.4,51.1,584.6,50,584.5,47.8z"/>
	<path class="st1" d="M594.2,38h2.6v4.8h0.1c0.6-1,1.6-1.5,2.7-1.5c2.4,0,3.4,1.2,3.4,3.7v5.8h-2.6v-5.3c0-1.5-0.5-2.2-1.6-2.2
		c-1.6,0-2,1-2,2.7v4.9h-2.6V38z"/>
	<path class="st1" d="M604.2,46.2c0-3,1.9-4.9,4.8-4.9c3,0,4.8,2,4.8,4.9c0,3-2,4.9-4.8,4.9C606,51.1,604.2,49.1,604.2,46.2z
		 M611.2,46.2c0-1.5-0.5-3-2.3-3c-1.4,0-2.2,1.1-2.2,3c0,1.9,0.8,3,2.2,3C610.5,49.2,611.2,48,611.2,46.2z"/>
	<path class="st1" d="M615,41.5h2.4v1.2h0c0.6-1,1.6-1.4,2.8-1.4c2.8,0,4.2,2.2,4.2,5c0,2.6-1.4,4.8-4.1,4.8c-1.2,0-2.2-0.5-2.8-1.4
		h0v4.4H615V41.5z M621.9,46.2c0-1.4-0.5-3-2.3-3c-1.4,0-2.2,1.1-2.2,3c0,1.7,0.7,3,2.2,3C621.3,49.2,621.9,47.9,621.9,46.2z"/>
	<path class="st1" d="M629.7,47.8h2.4c0,1,0.9,1.6,2,1.6c0.9,0,1.7-0.4,1.7-1.2c0-0.7-0.8-1-2.8-1.4c-2.2-0.5-3-1.2-3-2.5
		c0-2,1.4-3,4.1-3c2.5,0,3.9,1,4.1,3h-2.4c-0.1-0.9-0.7-1.3-1.7-1.3c-1,0-1.4,0.3-1.4,0.9c0,0.6,0.6,0.9,2,1.2
		c1.9,0.4,2.6,0.6,3.1,1.1c0.5,0.4,0.7,1,0.7,1.7c0,2.4-2.1,3.2-4.2,3.2C631.5,51.1,629.8,50,629.7,47.8z"/>
	<path class="st1" d="M639.4,47.3v-5.8h2.6v5.3c0,1.4,0.4,2.3,1.6,2.3c1.4,0,2-0.8,2-2.6v-4.9h2.6v9.3h-2.4v-1.3h-0.1
		c-0.6,1-1.7,1.5-2.9,1.5C640.3,51.1,639.4,49.9,639.4,47.3z"/>
	<path class="st1" d="M649.6,41.5h2.4v1.2h0c0.6-1,1.6-1.4,2.8-1.4c2.8,0,4.2,2.2,4.2,5c0,2.6-1.4,4.8-4.1,4.8
		c-1.2,0-2.2-0.5-2.8-1.4h0v4.4h-2.6V41.5z M656.5,46.2c0-1.4-0.5-3-2.3-3c-1.4,0-2.2,1.1-2.2,3c0,1.7,0.7,3,2.2,3
		C655.9,49.2,656.5,47.9,656.5,46.2z"/>
	<path class="st1" d="M660.2,41.5h2.4v1.2h0c0.6-1,1.6-1.4,2.8-1.4c2.8,0,4.2,2.2,4.2,5c0,2.6-1.4,4.8-4.1,4.8
		c-1.2,0-2.2-0.5-2.8-1.4h0v4.4h-2.6V41.5z M667.1,46.2c0-1.4-0.5-3-2.3-3c-1.4,0-2.2,1.1-2.2,3c0,1.7,0.7,3,2.2,3
		C666.5,49.2,667.1,47.9,667.1,46.2z"/>
	<path class="st1" d="M670.8,38h2.6v12.9h-2.6V38z"/>
	<path class="st1" d="M674.8,39.1c0-0.8,0.6-1.4,1.4-1.4c0.8,0,1.4,0.6,1.4,1.4s-0.6,1.4-1.4,1.4C675.5,40.6,674.8,39.9,674.8,39.1z
		 M675,41.5h2.6v9.3H675V41.5z"/>
	<path class="st1" d="M678.7,46.2c0-2.8,1.9-4.9,4.8-4.9c2.9,0,4.5,2.3,4.5,5.1l0,0.5h-6.7c0.1,1.6,0.8,2.4,2.3,2.4
		c1,0,1.8-0.6,2-1.2h2.3c-0.7,2.1-2.1,3.1-4.4,3.1C680.5,51.1,678.7,49.1,678.7,46.2z M685.4,45.2c-0.3-1.4-0.9-2-2.1-2
		c-1.2,0-2,0.8-2.1,2H685.4z"/>
	<path class="st1" d="M688.6,47.8h2.4c0,1,0.9,1.6,2,1.6c0.9,0,1.7-0.4,1.7-1.2c0-0.7-0.8-1-2.8-1.4c-2.2-0.5-3-1.2-3-2.5
		c0-2,1.4-3,4.1-3c2.5,0,3.9,1,4.1,3h-2.4c-0.1-0.9-0.7-1.3-1.7-1.3c-1,0-1.4,0.3-1.4,0.9c0,0.6,0.6,0.9,2,1.2
		c1.9,0.4,2.6,0.6,3.1,1.1c0.5,0.4,0.7,1,0.7,1.7c0,2.4-2.1,3.2-4.2,3.2C690.4,51.1,688.6,50,688.6,47.8z"/>
</g>
</svg>
