<?xml version="1.0" encoding="utf-8"?>
<!-- Generator: Adobe Illustrator 23.0.1, SVG Export Plug-In . SVG Version: 6.00 Build 0)  -->
<svg version="1.1" id="Layer_1" xmlns="http://www.w3.org/2000/svg" xmlns:xlink="http://www.w3.org/1999/xlink" x="0px" y="0px"
	 viewBox="0 0 728 90" style="enable-background:new 0 0 728 90;" xml:space="preserve">
<style type="text/css">
	.st0{clip-path:url(#SVGID_2_);fill:#EE1D22;}
	.st1{fill:#231F20;}
</style>
<g>
	<defs>
		<rect id="SVGID_1_" x="14.9" y="15.4" width="59.2" height="59.2"/>
	</defs>
	<clipPath id="SVGID_2_">
		<use xlink:href="#SVGID_1_"  style="overflow:visible;"/>
	</clipPath>
	<path class="st0" d="M54.4,45c0,5.5-4.4,9.9-9.9,9.9c-5.5,0-9.9-4.4-9.9-9.9s4.4-9.9,9.9-9.9C50,35.1,54.4,39.5,54.4,45 M44.5,64.7
		c10.9,0,19.7-8.8,19.7-19.7c0-10.9-8.8-19.7-19.7-19.7c-10.9,0-19.7,8.8-19.7,19.7C24.8,55.9,33.6,64.7,44.5,64.7 M14.9,45
		c0-16.4,13.3-29.6,29.6-29.6c16.4,0,29.6,13.3,29.6,29.6c0,16.3-13.3,29.6-29.6,29.6C28.1,74.6,14.9,61.3,14.9,45"/>
</g>
<path class="st1" d="M92,17.3h-3.2v-1.9H89c2.1,0,3.3-0.9,3.5-2.5h2v12.6H92V17.3z M97.3,21.7h2.6c0.1,1.2,1,1.9,2.1,1.9
	c1.3,0,2.2-1.1,2.2-2.4c0-1.3-0.8-2.4-2.2-2.4c-0.9,0-1.4,0.3-1.9,1h-2.3l1.2-7h7V15h-5.2l-0.5,2.9l0,0c0.6-0.6,1.4-1,2.5-1
	c2.5,0,3.9,1.9,3.9,4.3c0,2.5-2,4.5-4.6,4.5C99.3,25.7,97.3,24.3,97.3,21.7z M107.8,16.2c0-2,1-3.6,3.1-3.6c2.2,0,3,1.6,3,3.6
	c0,2.2-1.1,3.4-3,3.4C108.8,19.7,107.8,18.5,107.8,16.2z M112,16.3c0-0.7-0.1-2.3-1.1-2.3c-1.1,0-1.2,1.3-1.2,2.3
	c0,0.8,0,2.1,1.2,2.1C111.8,18.3,112,17.4,112,16.3z M118,12.5h1.7l-7.4,13.4h-1.8L118,12.5z M116.4,22.2c0-2,1-3.5,3.1-3.5
	c2,0,3,1.2,3,3.5c0,2.1-1.1,3.5-3,3.5C117.3,25.7,116.4,24.4,116.4,22.2z M120.6,22.2c0-1.4-0.3-2.1-1.1-2.1c-1.2,0-1.2,1.4-1.2,2.1
	c0,0.8,0,2.2,1.2,2.2C120.3,24.4,120.6,23.5,120.6,22.2z M128.5,20.8c0-3,1.9-4.9,4.8-4.9c3,0,4.8,2,4.8,4.9c0,3-2,4.9-4.8,4.9
	C130.4,25.7,128.5,23.8,128.5,20.8z M135.6,20.8c0-1.5-0.5-3-2.3-3c-1.4,0-2.2,1.1-2.2,3c0,1.9,0.8,3,2.3,3
	C134.9,23.8,135.6,22.7,135.6,20.8z M139.9,17.9h-1.5v-1.7h1.5v-0.7c0-1.9,1.2-2.9,3.1-2.9c0.2,0,0.6,0,1.4,0.1v1.9
	c-0.3,0-0.6-0.1-0.9-0.1c-0.6,0-1,0.2-1,1v0.6h2.9v-0.7c0-2,1.4-2.8,3.1-2.8c0.2,0,0.6,0,1.4,0.1v1.9c-0.3,0-0.6-0.1-0.9-0.1
	c-0.6,0-1,0.2-1,1v0.6h1.8v1.7H148v7.6h-2.6v-7.6h-2.9v7.6h-2.6V17.9z M154.9,16.2h2.4v1.3h0.1c0.6-1,1.7-1.5,2.9-1.5
	c2.4,0,3.4,1.2,3.4,3.8v5.8h-2.6v-5.3c0-1.5-0.5-2.3-1.6-2.3c-1.6,0-2,1-2,2.7v4.8h-2.6V16.2z M164.7,20.8c0-2.8,1.9-4.9,4.8-4.9
	c2.9,0,4.5,2.3,4.5,5.1l0,0.5h-6.7c0.1,1.6,0.8,2.4,2.3,2.4c1,0,1.8-0.6,2-1.2h2.3c-0.7,2.1-2.1,3.1-4.4,3.1
	C166.5,25.7,164.7,23.7,164.7,20.8z M171.4,19.8c-0.3-1.4-0.9-2-2.1-2c-1.2,0-2,0.8-2.1,2H171.4z M177.1,20.6l-3.1-4.4h2.9l1.6,2.4
	l1.6-2.4h2.8l-3.1,4.4l3.4,5h-2.9l-1.9-2.9l-1.9,2.9h-2.9L177.1,20.6z M184.6,23.4v-5.5h-1.5v-1.7h1.5v-2.8h2.6v2.8h1.9v1.7h-1.9
	v4.6c0,0.9,0.2,1.1,1.1,1.1c0.3,0,0.6,0,0.8-0.1v2c-0.4,0.1-1,0.1-1.5,0.1C185.6,25.6,184.6,25,184.6,23.4z M194.4,16.2h2.4v1.2h0
	c0.6-1,1.6-1.4,2.8-1.4c2.8,0,4.2,2.2,4.2,5c0,2.6-1.4,4.8-4.1,4.8c-1.2,0-2.2-0.5-2.8-1.4h0v4.4h-2.6V16.2z M201.3,20.9
	c0-1.4-0.5-3-2.3-3c-1.4,0-2.2,1.1-2.2,3c0,1.7,0.7,3,2.2,3C200.7,23.8,201.3,22.5,201.3,20.9z M204.9,22v-5.8h2.6v5.3
	c0,1.4,0.4,2.3,1.6,2.3c1.4,0,2-0.8,2-2.6v-4.9h2.6v9.3h-2.4v-1.3h-0.1c-0.6,1-1.7,1.5-2.9,1.5C205.9,25.7,204.9,24.5,204.9,22z
	 M215.1,16.2h2.4v1.7h0c0.5-1.2,1.7-2,3-2c0.3,0,0.4,0.1,0.6,0.1v2.4c-0.3-0.1-0.6-0.1-0.9-0.1c-1.9,0-2.5,1.3-2.5,3v4.2h-2.6V16.2z
	 M221.3,21c0-3,1.8-5,4.8-5c2.4,0,4.2,1.3,4.4,3.5h-2.5c-0.2-1.1-0.8-1.6-1.9-1.6c-1.5,0-2.2,1.5-2.2,3c0,1.5,0.6,2.9,2.1,2.9
	c1.1,0,1.9-0.6,2-1.9h2.5c-0.3,2.4-2,3.8-4.5,3.8C223.1,25.7,221.3,23.7,221.3,21z M231.4,12.6h2.6v4.8h0.1c0.6-1,1.6-1.5,2.7-1.5
	c2.4,0,3.4,1.2,3.4,3.7v5.8h-2.6v-5.3c0-1.5-0.5-2.3-1.6-2.3c-1.6,0-2,1-2,2.7v4.9h-2.6V12.6z M241.3,23c0-0.9,0.3-1.5,0.8-2
	c0.6-0.5,1.5-0.8,3-0.9c1.7-0.2,2.4-0.3,2.4-1.2c0-1.1-0.8-1.2-1.6-1.2c-1.1,0-1.6,0.4-1.7,1.4h-2.6c0.1-2,1.8-3.1,4.4-3.1
	c2.7,0,4.1,0.9,4.1,2.6v4.5c0,0.6,0.1,0.7,0.6,0.7h0.1v1.7c-0.2,0.1-0.5,0.2-1.1,0.2c-1.2,0-1.8-0.4-2-1.2c-0.6,0.7-1.7,1.3-3.2,1.3
	C242.5,25.7,241.3,24.8,241.3,23z M247.5,21.9v-1c-0.2,0.2-0.7,0.3-1.5,0.5c-1.3,0.2-2.1,0.5-2.1,1.5c0,0.7,0.5,1.2,1.6,1.2
	C246.8,24,247.5,23.3,247.5,21.9z M251.1,22.5h2.4c0,1,0.9,1.6,2,1.6c0.9,0,1.7-0.4,1.7-1.2c0-0.7-0.8-1-2.8-1.4
	c-2.2-0.5-3-1.2-3-2.5c0-2,1.4-3,4.1-3c2.5,0,3.9,1,4.1,3H257c-0.1-0.9-0.7-1.3-1.7-1.3c-1,0-1.4,0.3-1.4,0.9c0,0.6,0.6,0.9,2,1.2
	c1.9,0.4,2.6,0.6,3.1,1.1c0.5,0.4,0.7,1,0.7,1.7c0,2.4-2.1,3.2-4.2,3.2C252.9,25.7,251.2,24.7,251.1,22.5z M260.3,20.8
	c0-2.8,1.9-4.9,4.8-4.9c2.9,0,4.5,2.3,4.5,5.1l0,0.5h-6.7c0.1,1.6,0.8,2.4,2.3,2.4c1,0,1.8-0.6,2-1.2h2.3c-0.7,2.1-2.1,3.1-4.4,3.1
	C262.1,25.7,260.3,23.7,260.3,20.8z M267,19.8c-0.3-1.4-0.9-2-2.1-2c-1.2,0-2,0.8-2.1,2H267z"/>
<g>
	<path class="st1" d="M87.5,36.2h1.2l2.4,8h0l2.3-8h1.3l2.3,8h0l2.4-8h1.2l-3,9.3h-1.2l-2.3-7.8h0l-2.3,7.8h-1.2L87.5,36.2z"/>
	<path class="st1" d="M101.4,32.6h1.1v5.2h0c0.4-1.1,1.6-1.9,3-1.9c2.4,0,3.4,1.2,3.4,3.5v6h-1.1v-5.8c0-1.9-0.8-2.8-2.4-2.8
		c-2.1,0-2.9,1.7-2.9,3.3v5.3h-1.1V32.6z"/>
	<path class="st1" d="M110.1,40.8c0-2.5,1.3-4.9,4.2-4.9c2.6,0,4.1,2.1,4.1,5v0.3h-7.1c0,1.8,1,3.7,3.1,3.7c1.5,0,2.5-0.8,2.9-2.4
		h1.1c-0.5,2.3-1.9,3.3-4.1,3.3C111.5,45.8,110.1,43.7,110.1,40.8z M117.3,40.2c-0.1-1.7-1.2-3.3-3-3.3c-1.6,0-2.8,1.3-3,3.3H117.3z
		"/>
	<path class="st1" d="M119.5,36.2h1.1v1.6h0c0.4-1.1,1.6-1.9,3-1.9c2.4,0,3.4,1.2,3.4,3.5v6h-1.1v-5.8c0-1.8-0.7-2.8-2.4-2.8
		c-2,0-2.9,1.6-2.9,3.3v5.3h-1.1V36.2z"/>
	<path class="st1" d="M133.2,48.8v-1c0.1,0,0.5,0.1,0.8,0.1c0.5,0,0.8-0.2,1.1-0.5c0.3-0.3,0.4-0.7,0.9-2.1l-3.7-9.3h1.2l3.1,7.9
		l2.9-7.9h1.1l-4,10.7c-0.2,0.5-0.5,1.2-0.9,1.5c-0.4,0.3-0.8,0.5-1.5,0.5C133.7,48.9,133.4,48.9,133.2,48.8z"/>
	<path class="st1" d="M140.5,40.8c0-2.7,1.6-4.9,4.4-4.9c2.8,0,4.4,2.2,4.4,4.9c0,2.7-1.6,4.9-4.4,4.9
		C142.1,45.8,140.5,43.5,140.5,40.8z M148.1,40.8c0-1.9-1.1-4-3.3-4c-2.1,0-3.2,1.9-3.2,4c0,2,1.2,4,3.3,4
		C147,44.8,148.1,42.8,148.1,40.8z"/>
	<path class="st1" d="M150.5,42.2v-6h1.1V42c0,1.6,0.5,2.8,2.5,2.8c1.9,0,2.8-1.8,2.8-3.7v-4.9h1.1v9.3h-1v-1.7h0
		c-0.6,1.2-1.8,1.9-3.2,1.9C151.4,45.8,150.5,44.4,150.5,42.2z"/>
	<path class="st1" d="M163.8,42.5h1.1c0.1,1.5,1.2,2.3,2.7,2.3c1.2,0,2.5-0.5,2.5-1.7c0-1-0.7-1.4-2.2-1.7l-1.2-0.3
		c-1.8-0.4-2.7-1.1-2.7-2.5c0-1.9,1.9-2.6,3.5-2.6c2,0,3.3,1.1,3.4,3h-1.1c0-1.3-1-2-2.4-2c-1,0-2.2,0.4-2.2,1.6
		c0,0.8,0.7,1.3,2.1,1.6l1.2,0.3c1,0.2,2.8,0.7,2.8,2.6c0,2-2,2.8-3.7,2.8C165.3,45.8,164,44.7,163.8,42.5z"/>
	<path class="st1" d="M172.5,36.2h1V38h0c0.5-1.3,1.8-2,3.3-2c2.8,0,4.2,2.2,4.2,4.9c0,2.9-1.5,4.9-4.2,4.9c-1.5,0-2.8-0.8-3.2-2h0
		v5.2h-1.1V36.2z M180,40.8c0-1.9-0.9-4-3.1-4c-2.1,0-3.2,1.3-3.2,4c0,2,0.9,4,3.3,4C179.1,44.8,180,42.8,180,40.8z"/>
	<path class="st1" d="M182,40.8c0-2.5,1.3-4.9,4.2-4.9c2.6,0,4.1,2.1,4.1,5v0.3h-7.1c0,1.8,1,3.7,3.1,3.7c1.5,0,2.5-0.8,2.9-2.4h1.1
		c-0.5,2.3-1.9,3.3-4.1,3.3C183.4,45.8,182,43.7,182,40.8z M189.1,40.2c-0.1-1.7-1.2-3.3-3-3.3c-1.6,0-2.8,1.3-3,3.3H189.1z"/>
	<path class="st1" d="M191.3,36.2h1.1v1.6h0c0.4-1.1,1.6-1.9,3-1.9c2.4,0,3.4,1.2,3.4,3.5v6h-1.1v-5.8c0-1.8-0.7-2.8-2.4-2.8
		c-2,0-2.9,1.6-2.9,3.3v5.3h-1.1V36.2z"/>
	<path class="st1" d="M200.2,40.8c0-2.7,1.4-4.9,4.2-4.9c1.4,0,2.8,0.7,3.2,2h0v-5.3h1.1v12.9h-1v-1.8h0c-0.5,1.3-2,2-3.3,2
		C201.6,45.8,200.2,43.6,200.2,40.8z M207.6,40.8c0-2-0.9-4-3.3-4c-2.1,0-3,2-3,4c0,2,0.9,4,3,4C206.6,44.8,207.6,43,207.6,40.8z"/>
	<path class="st1" d="M218,45.2c-2.4-0.3-3.6-1.4-3.7-3.9h1.1c0,1.6,0.8,2.7,2.5,2.9v-4.5c-2.6-0.5-3.3-1.5-3.3-3.2
		c0-1.7,1.4-3,3.3-3.1v-1.2h0.8v1.2c2,0.1,3.4,1.5,3.4,3.5h-1.2c0-1.4-0.8-2.4-2.2-2.5v4.5c2.4,0.5,3.7,1.3,3.7,3.3
		c0,1.8-1.5,3.1-3.7,3.2v1.3H218V45.2z M218,34.3c-1.4,0.1-2.2,0.9-2.2,2.3c0,1,0.5,1.6,2.2,2V34.3z M221.4,42.1
		c0-1.1-0.7-1.7-2.5-2.2v4.4C220.4,44.2,221.4,43.3,221.4,42.1z"/>
	<path class="st1" d="M227.7,36.1h-3.3v-0.8c1.1,0,1.7-0.1,2.2-0.3c0.8-0.3,1.2-1,1.4-2.2h0.9v12.6h-1.1V36.1z"/>
	<path class="st1" d="M232.7,39.3c0-4.3,1.5-6.5,4.4-6.5c2.9,0,4.4,2.3,4.4,6.5c0,4.3-1.5,6.5-4.4,6.5
		C234.2,45.8,232.7,43.6,232.7,39.3z M240.4,39.3c0-3.7-1.1-5.5-3.3-5.5c-2.1,0-3.2,1.9-3.2,5.5c0,3.7,1.1,5.5,3.3,5.5
		S240.4,42.9,240.4,39.3z"/>
	<path class="st1" d="M246.9,40.8c0-2.7,1.6-4.9,4.4-4.9c2.8,0,4.4,2.2,4.4,4.9c0,2.7-1.6,4.9-4.4,4.9
		C248.5,45.8,246.9,43.5,246.9,40.8z M254.5,40.8c0-1.9-1.1-4-3.3-4c-2.1,0-3.2,1.9-3.2,4c0,2,1.2,4,3.3,4
		C253.4,44.8,254.5,42.8,254.5,40.8z"/>
	<path class="st1" d="M256.9,36.2h1.1v1.6h0c0.4-1.1,1.6-1.9,3-1.9c2.4,0,3.4,1.2,3.4,3.5v6h-1.1v-5.8c0-1.8-0.7-2.8-2.4-2.8
		c-2,0-2.9,1.6-2.9,3.3v5.3h-1.1V36.2z"/>
</g>
<g>
	<path class="st1" d="M87.9,62.5h1.1c0.1,1.5,1.2,2.3,2.7,2.3c1.2,0,2.5-0.5,2.5-1.7c0-1-0.7-1.4-2.2-1.7L90.9,61
		c-1.8-0.4-2.7-1.1-2.7-2.5c0-1.9,1.9-2.6,3.5-2.6c2,0,3.3,1.1,3.4,3H94c0-1.3-1-2-2.4-2c-1,0-2.2,0.4-2.2,1.6
		c0,0.8,0.7,1.3,2.1,1.6l1.2,0.3c1,0.2,2.8,0.7,2.8,2.6c0,2-2,2.8-3.7,2.8C89.5,65.8,88.1,64.7,87.9,62.5z"/>
	<path class="st1" d="M96.2,60.8c0-2.5,1.3-4.9,4.2-4.9c2.6,0,4.1,2.1,4.1,5v0.3h-7.1c0,1.8,1,3.7,3.1,3.7c1.5,0,2.5-0.8,2.9-2.4
		h1.1c-0.5,2.3-1.9,3.3-4.1,3.3C97.6,65.8,96.2,63.7,96.2,60.8z M103.4,60.2c-0.1-1.7-1.2-3.3-3-3.3c-1.6,0-2.8,1.3-3,3.3H103.4z"/>
	<path class="st1" d="M105.6,52.6h1.1v12.9h-1.1V52.6z"/>
	<path class="st1" d="M108,60.8c0-2.5,1.3-4.9,4.2-4.9c2.6,0,4.1,2.1,4.1,5v0.3h-7.1c0,1.8,1,3.7,3.1,3.7c1.5,0,2.5-0.8,2.9-2.4h1.1
		c-0.5,2.3-1.9,3.3-4.1,3.3C109.4,65.8,108,63.7,108,60.8z M115.2,60.2c-0.1-1.7-1.2-3.3-3-3.3c-1.6,0-2.8,1.3-3,3.3H115.2z"/>
	<path class="st1" d="M116.9,60.8c0-2.8,1.7-4.9,4.4-4.9c2.2,0,3.5,1.2,3.8,3.2h-1.1c-0.3-1.5-1.2-2.2-2.6-2.2c-2.2,0-3.3,2-3.3,4
		c0,2,1.1,4,3.3,4c1.3,0,2.5-1,2.7-2.6h1.1c-0.3,2.3-1.8,3.6-3.8,3.6C118.5,65.8,116.9,63.5,116.9,60.8z"/>
	<path class="st1" d="M126.9,63.6v-6.4h-1.6v-1h1.6v-2.8h1.1v2.8h1.9v1h-1.9v6.3c0,0.8,0.2,1.2,1,1.2c0.2,0,0.5,0,0.8-0.1v1
		c-0.4,0-0.6,0-1,0C127.5,65.6,126.9,65.1,126.9,63.6z"/>
	<path class="st1" d="M135.2,62.5h1.1c0.1,1.5,1.2,2.3,2.7,2.3c1.2,0,2.5-0.5,2.5-1.7c0-1-0.7-1.4-2.2-1.7l-1.2-0.3
		c-1.8-0.4-2.7-1.1-2.7-2.5c0-1.9,1.9-2.6,3.5-2.6c2,0,3.3,1.1,3.4,3h-1.1c0-1.3-1-2-2.4-2c-1,0-2.2,0.4-2.2,1.6
		c0,0.8,0.7,1.3,2.1,1.6l1.2,0.3c1,0.2,2.8,0.7,2.8,2.6c0,2-2,2.8-3.7,2.8C136.7,65.8,135.4,64.7,135.2,62.5z"/>
	<path class="st1" d="M143.5,60.8c0-2.8,1.7-4.9,4.4-4.9c2.2,0,3.5,1.2,3.8,3.2h-1.1c-0.3-1.5-1.2-2.2-2.6-2.2c-2.2,0-3.3,2-3.3,4
		c0,2,1.1,4,3.3,4c1.3,0,2.5-1,2.7-2.6h1.1c-0.3,2.3-1.8,3.6-3.8,3.6C145.1,65.8,143.5,63.5,143.5,60.8z"/>
	<path class="st1" d="M152.8,52.6h1.1v5.2h0c0.4-1.1,1.6-1.9,3-1.9c2.4,0,3.4,1.2,3.4,3.5v6h-1.1v-5.8c0-1.9-0.8-2.8-2.4-2.8
		c-2.1,0-2.9,1.7-2.9,3.3v5.3h-1.1V52.6z"/>
	<path class="st1" d="M161.6,60.8c0-2.7,1.6-4.9,4.4-4.9c2.8,0,4.4,2.2,4.4,4.9c0,2.7-1.6,4.9-4.4,4.9
		C163.2,65.8,161.6,63.5,161.6,60.8z M169.3,60.8c0-1.9-1.1-4-3.3-4c-2.1,0-3.2,1.9-3.2,4c0,2,1.2,4,3.3,4
		C168.2,64.8,169.3,62.8,169.3,60.8z"/>
	<path class="st1" d="M171.2,60.8c0-2.7,1.6-4.9,4.4-4.9c2.8,0,4.4,2.2,4.4,4.9c0,2.7-1.6,4.9-4.4,4.9
		C172.8,65.8,171.2,63.5,171.2,60.8z M178.9,60.8c0-1.9-1.1-4-3.3-4c-2.1,0-3.2,1.9-3.2,4c0,2,1.2,4,3.3,4
		C177.7,64.8,178.9,62.8,178.9,60.8z"/>
	<path class="st1" d="M181.3,52.6h1.1v12.9h-1.1V52.6z"/>
	<path class="st1" d="M188.2,62.5h1.1c0.1,1.5,1.2,2.3,2.7,2.3c1.2,0,2.5-0.5,2.5-1.7c0-1-0.7-1.4-2.2-1.7l-1.2-0.3
		c-1.8-0.4-2.7-1.1-2.7-2.5c0-1.9,1.9-2.6,3.5-2.6c2,0,3.3,1.1,3.4,3h-1.1c0-1.3-1-2-2.4-2c-1,0-2.2,0.4-2.2,1.6
		c0,0.8,0.7,1.3,2.1,1.6l1.2,0.3c1,0.2,2.8,0.7,2.8,2.6c0,2-2,2.8-3.7,2.8C189.7,65.8,188.4,64.7,188.2,62.5z"/>
	<path class="st1" d="M196.9,62.2v-6h1.1V62c0,1.6,0.5,2.8,2.5,2.8c1.9,0,2.8-1.8,2.8-3.7v-4.9h1.1v9.3h-1v-1.7h0
		c-0.6,1.2-1.8,1.9-3.2,1.9C197.8,65.8,196.9,64.4,196.9,62.2z"/>
	<path class="st1" d="M206.2,56.2h1V58h0c0.5-1.3,1.8-2,3.3-2c2.8,0,4.2,2.2,4.2,4.9c0,2.9-1.5,4.9-4.2,4.9c-1.5,0-2.8-0.8-3.2-2h0
		v5.2h-1.1V56.2z M213.6,60.8c0-1.9-0.9-4-3.1-4c-2.1,0-3.2,1.3-3.2,4c0,2,0.9,4,3.3,4C212.7,64.8,213.6,62.8,213.6,60.8z"/>
	<path class="st1" d="M216.1,56.2h1V58h0c0.5-1.3,1.8-2,3.3-2c2.8,0,4.2,2.2,4.2,4.9c0,2.9-1.5,4.9-4.2,4.9c-1.5,0-2.8-0.8-3.2-2h0
		v5.2h-1.1V56.2z M223.5,60.8c0-1.9-0.9-4-3.1-4c-2.1,0-3.2,1.3-3.2,4c0,2,0.9,4,3.3,4C222.6,64.8,223.5,62.8,223.5,60.8z"/>
	<path class="st1" d="M226,52.6h1.1v12.9H226V52.6z"/>
	<path class="st1" d="M228.6,53.5c0-0.5,0.4-1,0.9-1c0.5,0,0.9,0.4,0.9,1c0,0.5-0.4,1-0.9,1C228.9,54.5,228.6,54,228.6,53.5z
		 M228.9,56.2h1.1v9.3h-1.1V56.2z"/>
	<path class="st1" d="M231.3,60.8c0-2.5,1.3-4.9,4.2-4.9c2.6,0,4.1,2.1,4.1,5v0.3h-7.1c0,1.8,1,3.7,3.1,3.7c1.5,0,2.5-0.8,2.9-2.4
		h1.1c-0.5,2.3-1.9,3.3-4.1,3.3C232.7,65.8,231.3,63.7,231.3,60.8z M238.4,60.2c-0.1-1.7-1.2-3.3-3-3.3c-1.6,0-2.8,1.3-3,3.3H238.4z
		"/>
	<path class="st1" d="M240.1,62.5h1.1c0.1,1.5,1.2,2.3,2.7,2.3c1.2,0,2.5-0.5,2.5-1.7c0-1-0.7-1.4-2.2-1.7l-1.2-0.3
		c-1.8-0.4-2.7-1.1-2.7-2.5c0-1.9,1.9-2.6,3.5-2.6c2,0,3.3,1.1,3.4,3h-1.1c0-1.3-1-2-2.4-2c-1,0-2.2,0.4-2.2,1.6
		c0,0.8,0.7,1.3,2.1,1.6l1.2,0.3c1,0.2,2.8,0.7,2.8,2.6c0,2-2,2.8-3.7,2.8C241.7,65.8,240.3,64.7,240.1,62.5z"/>
</g>
<g>
	<path class="st1" d="M249.2,59.1l1-1.4l-1.6-0.5l0.2-0.5l1.6,0.6v-1.7h0.5v1.7l1.6-0.6l0.2,0.5l-1.7,0.5l1,1.4l-0.4,0.3l-1-1.4
		l-1,1.4L249.2,59.1z"/>
</g>
<g>
	<path class="st1" d="M88.3,74.7c0-0.2,0.2-0.4,0.4-0.4c0.2,0,0.4,0.2,0.4,0.4c0,0.2-0.2,0.4-0.4,0.4C88.5,75.1,88.3,74.9,88.3,74.7
		z M88.4,75.9h0.5V80h-0.5V75.9z"/>
	<path class="st1" d="M89.8,75.9h0.5v0.7h0c0.2-0.5,0.7-0.8,1.3-0.8c1.1,0,1.5,0.5,1.5,1.6V80h-0.5v-2.6c0-0.8-0.3-1.2-1-1.2
		c-0.9,0-1.3,0.7-1.3,1.5V80h-0.5V75.9z"/>
	<path class="st1" d="M94.1,77.6h2V78h-2V77.6z"/>
	<path class="st1" d="M96.7,78.7h0.5c0,0.7,0.5,1,1.2,1c0.5,0,1.1-0.2,1.1-0.8c0-0.4-0.3-0.6-1-0.8L98,78c-0.8-0.2-1.2-0.5-1.2-1.1
		c0-0.8,0.8-1.2,1.6-1.2c0.9,0,1.5,0.5,1.5,1.3h-0.5c0-0.6-0.4-0.9-1.1-0.9c-0.5,0-1,0.2-1,0.7c0,0.4,0.3,0.6,0.9,0.7l0.5,0.1
		c0.4,0.1,1.2,0.3,1.2,1.2c0,0.9-0.9,1.2-1.7,1.2C97.4,80.1,96.8,79.6,96.7,78.7z"/>
	<path class="st1" d="M101,79.1v-2.9h-0.7v-0.4h0.7v-1.2h0.5v1.2h0.8v0.4h-0.8v2.8c0,0.4,0.1,0.5,0.5,0.5c0.1,0,0.2,0,0.4,0V80
		c-0.2,0-0.3,0-0.4,0C101.2,80,101,79.8,101,79.1z"/>
	<path class="st1" d="M102.7,77.9c0-1.2,0.7-2.2,2-2.2c1.3,0,2,1,2,2.2c0,1.2-0.7,2.2-2,2.2S102.7,79.1,102.7,77.9z M106.1,77.9
		c0-0.9-0.5-1.8-1.5-1.8c-0.9,0-1.4,0.9-1.4,1.8c0,0.9,0.5,1.8,1.4,1.8C105.6,79.7,106.1,78.8,106.1,77.9z"/>
	<path class="st1" d="M107.3,75.9h0.5v1h0c0.2-0.7,0.8-1,1.5-1h0.1v0.5h-0.1c-0.9,0-1.5,0.6-1.5,1.5V80h-0.5V75.9z"/>
	<path class="st1" d="M109.4,77.9c0-1.1,0.6-2.2,1.9-2.2c1.2,0,1.8,0.9,1.8,2.2v0.1h-3.2c0,0.8,0.4,1.6,1.4,1.6
		c0.7,0,1.1-0.4,1.3-1.1h0.5c-0.2,1-0.8,1.5-1.8,1.5C110.1,80.1,109.4,79.2,109.4,77.9z M112.6,77.6c0-0.8-0.5-1.5-1.3-1.5
		c-0.7,0-1.2,0.6-1.4,1.5H112.6z"/>
	<path class="st1" d="M115.7,77.9c0-1.2,0.7-2.2,2-2.2c1.3,0,2,1,2,2.2c0,1.2-0.7,2.2-2,2.2S115.7,79.1,115.7,77.9z M119.1,77.9
		c0-0.9-0.5-1.8-1.5-1.8c-0.9,0-1.4,0.9-1.4,1.8c0,0.9,0.5,1.8,1.4,1.8C118.6,79.7,119.1,78.8,119.1,77.9z"/>
	<path class="st1" d="M120.2,75.9h0.5v0.7h0c0.2-0.5,0.7-0.8,1.3-0.8c1.1,0,1.5,0.5,1.5,1.6V80h-0.5v-2.6c0-0.8-0.3-1.2-1-1.2
		c-0.9,0-1.3,0.7-1.3,1.5V80h-0.5V75.9z"/>
	<path class="st1" d="M124.5,74.3h0.5V80h-0.5V74.3z"/>
	<path class="st1" d="M125.8,81.5v-0.4c0,0,0.2,0,0.3,0c0.2,0,0.4-0.1,0.5-0.2c0.1-0.2,0.2-0.3,0.4-0.9l-1.6-4.1h0.5l1.4,3.5
		l1.3-3.5h0.5l-1.8,4.8c-0.1,0.2-0.2,0.5-0.4,0.7c-0.2,0.2-0.4,0.2-0.7,0.2C126,81.5,125.9,81.5,125.8,81.5z"/>
	<path class="st1" d="M128.5,79.6c0-0.2,0.2-0.5,0.4-0.5s0.4,0.2,0.4,0.5c0,0.2-0.2,0.5-0.4,0.5C128.7,80,128.5,79.8,128.5,79.6z"/>
	<path class="st1" d="M132.7,76.3l0.6-0.8l-0.9-0.3l0.1-0.3l0.9,0.3v-1h0.3v1l0.9-0.3l0.1,0.3l-0.9,0.3l0.6,0.8l-0.3,0.2l-0.6-0.8
		l-0.6,0.8L132.7,76.3z"/>
	<path class="st1" d="M135.3,75.9h0.5v1h0c0.2-0.7,0.8-1,1.5-1h0.1v0.5h-0.1c-0.9,0-1.5,0.6-1.5,1.5V80h-0.5V75.9z"/>
	<path class="st1" d="M137.5,77.9c0-1.1,0.6-2.2,1.9-2.2c1.2,0,1.8,0.9,1.8,2.2v0.1H138c0,0.8,0.4,1.6,1.4,1.6
		c0.7,0,1.1-0.4,1.3-1.1h0.5c-0.2,1-0.8,1.5-1.8,1.5C138.1,80.1,137.5,79.2,137.5,77.9z M140.7,77.6c0-0.8-0.5-1.5-1.3-1.5
		c-0.7,0-1.2,0.6-1.4,1.5H140.7z"/>
	<path class="st1" d="M141.6,78.7h0.5c0,0.7,0.5,1,1.2,1c0.5,0,1.1-0.2,1.1-0.8c0-0.4-0.3-0.6-1-0.8l-0.5-0.1
		c-0.8-0.2-1.2-0.5-1.2-1.1c0-0.8,0.8-1.2,1.6-1.2c0.9,0,1.5,0.5,1.5,1.3h-0.5c0-0.6-0.4-0.9-1.1-0.9c-0.5,0-1,0.2-1,0.7
		c0,0.4,0.3,0.6,0.9,0.7l0.5,0.1c0.4,0.1,1.2,0.3,1.2,1.2c0,0.9-0.9,1.2-1.7,1.2C142.2,80.1,141.6,79.6,141.6,78.7z"/>
	<path class="st1" d="M145.9,79.1v-2.9h-0.7v-0.4h0.7v-1.2h0.5v1.2h0.8v0.4h-0.8v2.8c0,0.4,0.1,0.5,0.5,0.5c0.1,0,0.2,0,0.4,0V80
		c-0.2,0-0.3,0-0.4,0C146.1,80,145.9,79.8,145.9,79.1z"/>
	<path class="st1" d="M147.9,75.9h0.5v1h0c0.2-0.7,0.8-1,1.5-1h0.1v0.5h-0.1c-0.9,0-1.5,0.6-1.5,1.5V80h-0.5V75.9z"/>
	<path class="st1" d="M150.2,74.7c0-0.2,0.2-0.4,0.4-0.4c0.2,0,0.4,0.2,0.4,0.4c0,0.2-0.2,0.4-0.4,0.4
		C150.4,75.1,150.2,74.9,150.2,74.7z M150.4,75.9h0.5V80h-0.5V75.9z"/>
	<path class="st1" d="M151.6,77.9c0-1.2,0.8-2.2,2-2.2c1,0,1.6,0.5,1.7,1.4h-0.5c-0.1-0.7-0.5-1-1.2-1c-1,0-1.4,0.9-1.4,1.8
		c0,0.9,0.5,1.8,1.4,1.8c0.6,0,1.1-0.5,1.2-1.2h0.5c-0.1,1-0.8,1.6-1.7,1.6C152.3,80.1,151.6,79.1,151.6,77.9z"/>
	<path class="st1" d="M156.1,79.1v-2.9h-0.7v-0.4h0.7v-1.2h0.5v1.2h0.8v0.4h-0.8v2.8c0,0.4,0.1,0.5,0.5,0.5c0.1,0,0.2,0,0.4,0V80
		c-0.2,0-0.3,0-0.4,0C156.4,80,156.1,79.8,156.1,79.1z"/>
	<path class="st1" d="M158,74.7c0-0.2,0.2-0.4,0.4-0.4c0.2,0,0.4,0.2,0.4,0.4c0,0.2-0.2,0.4-0.4,0.4C158.2,75.1,158,74.9,158,74.7z
		 M158.2,75.9h0.5V80h-0.5V75.9z"/>
	<path class="st1" d="M159.3,77.9c0-1.2,0.7-2.2,2-2.2c1.3,0,2,1,2,2.2c0,1.2-0.7,2.2-2,2.2S159.3,79.1,159.3,77.9z M162.7,77.9
		c0-0.9-0.5-1.8-1.5-1.8c-0.9,0-1.4,0.9-1.4,1.8c0,0.9,0.5,1.8,1.4,1.8C162.2,79.7,162.7,78.8,162.7,77.9z"/>
	<path class="st1" d="M163.9,75.9h0.5v0.7h0c0.2-0.5,0.7-0.8,1.3-0.8c1.1,0,1.5,0.5,1.5,1.6V80h-0.5v-2.6c0-0.8-0.3-1.2-1-1.2
		c-0.9,0-1.3,0.7-1.3,1.5V80h-0.5V75.9z"/>
	<path class="st1" d="M167.9,78.7h0.5c0,0.7,0.5,1,1.2,1c0.5,0,1.1-0.2,1.1-0.8c0-0.4-0.3-0.6-1-0.8l-0.5-0.1
		c-0.8-0.2-1.2-0.5-1.2-1.1c0-0.8,0.8-1.2,1.6-1.2c0.9,0,1.5,0.5,1.5,1.3h-0.5c0-0.6-0.4-0.9-1.1-0.9c-0.5,0-1,0.2-1,0.7
		c0,0.4,0.3,0.6,0.9,0.7l0.5,0.1c0.4,0.1,1.2,0.3,1.2,1.2c0,0.9-0.9,1.2-1.7,1.2C168.6,80.1,168,79.6,167.9,78.7z"/>
	<path class="st1" d="M174,75.9h0.5v0.7h0c0.3-0.6,0.7-0.8,1.4-0.8c0.6,0,1,0.3,1.2,0.8c0.2-0.5,0.7-0.8,1.3-0.8
		c0.9,0,1.4,0.5,1.4,1.4V80h-0.5v-2.8c0-0.7-0.3-1-1-1c-0.8,0-1.1,0.6-1.1,1.5V80h-0.5v-2.8c0-0.7-0.3-1-0.9-1
		c-0.8,0-1.2,0.6-1.2,1.5V80H174V75.9z"/>
	<path class="st1" d="M180.4,78.9c0-0.5,0.2-0.8,0.4-0.9c0.3-0.2,0.6-0.3,1.6-0.4c0.6-0.1,0.9-0.1,0.9-0.6c0-0.6-0.4-0.8-1.1-0.8
		c-0.7,0-1.1,0.3-1.1,1h-0.5c0.1-0.9,0.6-1.4,1.7-1.4c1.1,0,1.5,0.5,1.5,1.3v2.2c0,0.2,0.1,0.3,0.3,0.3c0.1,0,0.1,0,0.2,0V80
		c-0.1,0-0.2,0-0.3,0c-0.4,0-0.6-0.2-0.6-0.7v0h0c-0.4,0.6-0.8,0.8-1.5,0.8C181,80.1,180.4,79.7,180.4,78.9z M183.3,78.4v-0.7h0
		c-0.1,0.1-0.2,0.2-0.5,0.2c-0.2,0-0.8,0.1-1,0.2c-0.4,0.1-0.8,0.3-0.8,0.8c0,0.5,0.4,0.8,0.9,0.8C182.6,79.7,183.3,79.2,183.3,78.4
		z"/>
	<path class="st1" d="M184.5,81.5v-0.4c0,0,0.2,0,0.3,0c0.2,0,0.4-0.1,0.5-0.2c0.1-0.2,0.2-0.3,0.4-0.9l-1.6-4.1h0.5l1.4,3.5
		l1.3-3.5h0.5l-1.8,4.8c-0.1,0.2-0.2,0.5-0.4,0.7c-0.2,0.2-0.4,0.2-0.7,0.2C184.8,81.5,184.6,81.5,184.5,81.5z"/>
	<path class="st1" d="M190.1,78.9c0-0.5,0.2-0.8,0.4-0.9c0.3-0.2,0.6-0.3,1.6-0.4c0.6-0.1,0.9-0.1,0.9-0.6c0-0.6-0.4-0.8-1.1-0.8
		s-1.1,0.3-1.1,1h-0.5c0.1-0.9,0.6-1.4,1.7-1.4c1.1,0,1.5,0.5,1.5,1.3v2.2c0,0.2,0.1,0.3,0.3,0.3c0.1,0,0.1,0,0.2,0V80
		c-0.1,0-0.2,0-0.3,0c-0.4,0-0.6-0.2-0.6-0.7v0h0c-0.4,0.6-0.8,0.8-1.5,0.8C190.7,80.1,190.1,79.7,190.1,78.9z M193,78.4v-0.7h0
		c-0.1,0.1-0.2,0.2-0.5,0.2c-0.2,0-0.8,0.1-1,0.2c-0.4,0.1-0.8,0.3-0.8,0.8c0,0.5,0.4,0.8,0.9,0.8C192.3,79.7,193,79.2,193,78.4z"/>
	<path class="st1" d="M194.4,75.9h0.5v0.8h0c0.2-0.6,0.8-0.9,1.5-0.9c1.2,0,1.9,1,1.9,2.2c0,1.3-0.7,2.2-1.8,2.2
		c-0.7,0-1.2-0.3-1.4-0.9h0v2.3h-0.5V75.9z M197.7,77.9c0-0.8-0.4-1.8-1.4-1.8c-0.9,0-1.4,0.6-1.4,1.8c0,0.9,0.4,1.8,1.4,1.8
		C197.3,79.7,197.7,78.8,197.7,77.9z"/>
	<path class="st1" d="M199,75.9h0.5v0.8h0c0.2-0.6,0.8-0.9,1.5-0.9c1.2,0,1.9,1,1.9,2.2c0,1.3-0.7,2.2-1.8,2.2
		c-0.7,0-1.2-0.3-1.4-0.9h0v2.3H199V75.9z M202.3,77.9c0-0.8-0.4-1.8-1.4-1.8c-0.9,0-1.4,0.6-1.4,1.8c0,0.9,0.4,1.8,1.4,1.8
		C201.9,79.7,202.3,78.8,202.3,77.9z"/>
	<path class="st1" d="M203.5,74.3h0.5V80h-0.5V74.3z"/>
	<path class="st1" d="M204.8,81.5v-0.4c0,0,0.2,0,0.3,0c0.2,0,0.4-0.1,0.5-0.2c0.1-0.2,0.2-0.3,0.4-0.9l-1.6-4.1h0.5l1.4,3.5
		l1.3-3.5h0.5l-1.8,4.8c-0.1,0.2-0.2,0.5-0.4,0.7c-0.2,0.2-0.4,0.2-0.7,0.2C205.1,81.5,204.9,81.5,204.8,81.5z"/>
</g>
</svg>
