<?xml version="1.0" encoding="utf-8"?>
<!-- Generator: Adobe Illustrator 23.0.1, SVG Export Plug-In . SVG Version: 6.00 Build 0)  -->
<svg version="1.1" id="Layer_1" xmlns="http://www.w3.org/2000/svg" xmlns:xlink="http://www.w3.org/1999/xlink" x="0px" y="0px"
	 viewBox="0 0 970 250" style="enable-background:new 0 0 970 250;" xml:space="preserve">
<style type="text/css">
	.st0{fill:#EE1D22;}
	.st1{fill:#FFFFFF;}
</style>
<g>
	<path class="st0" d="M25.4,183c0,0-5.4,0-5.4,5.4V208c0,0,0,5.4,5.4,5.4h93.5c0,0,5.4,0,5.4-5.4v-19.6c0,0,0-5.4-5.4-5.4H25.4z"/>
</g>
<g>
	<path class="st1" d="M33.2,200.7h2.4c0,1,0.9,1.6,2,1.6c0.9,0,1.7-0.4,1.7-1.2c0-0.7-0.8-1-2.8-1.4c-2.2-0.5-3-1.2-3-2.5
		c0-2,1.4-3,4.1-3c2.5,0,3.9,1,4.1,3h-2.4c-0.1-0.9-0.7-1.3-1.7-1.3c-1,0-1.4,0.3-1.4,0.9c0,0.6,0.6,0.9,2,1.2
		c1.9,0.4,2.6,0.6,3.1,1.1c0.5,0.4,0.7,1,0.7,1.7c0,2.4-2.1,3.2-4.2,3.2C35,203.9,33.3,202.9,33.2,200.7z"/>
	<path class="st1" d="M42.9,190.8h2.6v4.8h0.1c0.6-1,1.6-1.5,2.7-1.5c2.4,0,3.4,1.2,3.4,3.7v5.8h-2.6v-5.3c0-1.5-0.5-2.2-1.6-2.2
		c-1.6,0-2,1-2,2.7v4.9h-2.6V190.8z"/>
	<path class="st1" d="M52.8,199c0-3,1.9-4.9,4.8-4.9c3,0,4.8,2,4.8,4.9c0,3-2,4.9-4.8,4.9C54.7,203.9,52.8,202,52.8,199z M59.9,199
		c0-1.5-0.5-3-2.3-3c-1.4,0-2.2,1.1-2.2,3c0,1.9,0.8,3,2.3,3C59.2,202,59.9,200.9,59.9,199z"/>
	<path class="st1" d="M63.7,194.4h2.4v1.2h0c0.6-1,1.6-1.4,2.8-1.4c2.8,0,4.2,2.2,4.2,5c0,2.6-1.4,4.8-4.1,4.8
		c-1.2,0-2.2-0.5-2.8-1.4h0v4.4h-2.6V194.4z M70.6,199.1c0-1.4-0.5-3-2.3-3c-1.4,0-2.2,1.1-2.2,3c0,1.7,0.7,3,2.2,3
		C70,202,70.6,200.7,70.6,199.1z"/>
	<path class="st1" d="M78.4,200.7h2.4c0,1,0.9,1.6,2,1.6c0.9,0,1.7-0.4,1.7-1.2c0-0.7-0.8-1-2.8-1.4c-2.2-0.5-3-1.2-3-2.5
		c0-2,1.4-3,4.1-3c2.5,0,3.9,1,4.1,3h-2.4c-0.1-0.9-0.7-1.3-1.7-1.3c-1,0-1.4,0.3-1.4,0.9c0,0.6,0.6,0.9,2,1.2
		c1.9,0.4,2.6,0.6,3.1,1.1c0.5,0.4,0.7,1,0.7,1.7c0,2.4-2.1,3.2-4.2,3.2C80.2,203.9,78.4,202.9,78.4,200.7z"/>
	<path class="st1" d="M87.6,201.2c0-0.9,0.3-1.5,0.8-2c0.6-0.5,1.5-0.8,3-0.9c1.7-0.2,2.4-0.3,2.4-1.2c0-1.1-0.8-1.2-1.6-1.2
		c-1.1,0-1.6,0.4-1.7,1.4h-2.6c0.1-2,1.8-3.1,4.4-3.1c2.7,0,4.1,0.9,4.1,2.6v4.5c0,0.6,0.1,0.7,0.6,0.7h0.1v1.7
		c-0.2,0.1-0.5,0.2-1.1,0.2c-1.2,0-1.8-0.4-2-1.2c-0.6,0.7-1.7,1.3-3.2,1.3C88.9,203.9,87.6,203,87.6,201.2z M93.8,200.1v-1
		c-0.2,0.2-0.7,0.3-1.5,0.5c-1.3,0.2-2.1,0.5-2.1,1.5c0,0.7,0.5,1.2,1.6,1.2C93.1,202.2,93.8,201.5,93.8,200.1z"/>
	<path class="st1" d="M98.1,190.8h2.6v12.9h-2.6V190.8z"/>
	<path class="st1" d="M101.6,199c0-2.8,1.9-4.9,4.8-4.9c2.9,0,4.5,2.3,4.5,5.1l0,0.5h-6.7c0.1,1.6,0.8,2.4,2.3,2.4
		c1,0,1.8-0.6,2-1.2h2.3c-0.7,2.1-2.1,3.1-4.4,3.1C103.4,203.9,101.6,201.9,101.6,199z M108.3,198c-0.3-1.4-0.9-2-2.1-2
		c-1.2,0-2,0.8-2.1,2H108.3z"/>
</g>
</svg>
