<?xml version="1.0" encoding="utf-8"?>
<!-- Generator: Adobe Illustrator 23.0.1, SVG Export Plug-In . SVG Version: 6.00 Build 0)  -->
<svg version="1.1" id="Layer_1" xmlns="http://www.w3.org/2000/svg" xmlns:xlink="http://www.w3.org/1999/xlink" x="0px" y="0px"
	 viewBox="0 0 970 250" style="enable-background:new 0 0 970 250;" xml:space="preserve">
<style type="text/css">
	.st0{clip-path:url(#SVGID_2_);fill:#EE1D22;}
	.st1{fill:#231F20;}
</style>
<g>
	<defs>
		<rect id="SVGID_1_" x="898.2" y="179.8" width="59.2" height="59.2"/>
	</defs>
	<clipPath id="SVGID_2_">
		<use xlink:href="#SVGID_1_"  style="overflow:visible;"/>
	</clipPath>
	<path class="st0" d="M937.6,209.4c0,5.5-4.4,9.9-9.9,9.9c-5.5,0-9.9-4.4-9.9-9.9s4.4-9.9,9.9-9.9
		C933.2,199.5,937.6,203.9,937.6,209.4 M927.8,229.1c10.9,0,19.7-8.8,19.7-19.7c0-10.9-8.8-19.7-19.7-19.7
		c-10.9,0-19.7,8.8-19.7,19.7C908,220.3,916.9,229.1,927.8,229.1 M898.2,209.4c0-16.4,13.3-29.6,29.6-29.6
		c16.4,0,29.6,13.3,29.6,29.6c0,16.4-13.3,29.6-29.6,29.6C911.4,239,898.2,225.7,898.2,209.4"/>
</g>
<g>
	<path class="st1" d="M22.1,49.1h5.6c0.5,2,2,2.8,4.2,2.8c2.9,0,4.6-1.8,4.6-5v-2.8h-0.1c-1.1,2-3.4,3.2-6.2,3.2
		c-6,0-8.8-4.4-8.8-10.4c0-5.3,3.1-10.2,8.9-10.2c3,0,4.9,1.1,6.2,3.3h0.1v-2.8h5.4v19.4c0,5.4-3.1,9.1-10.7,9.1
		C26.4,55.7,22.3,53.3,22.1,49.1z M36.5,37.2c0-2.9-0.9-6.3-4.9-6.3c-2.9,0-4.6,2.5-4.6,5.9c0,3.4,1.3,6.2,4.6,6.2
		C34.8,43,36.5,40.5,36.5,37.2z"/>
	<path class="st1" d="M45.5,27.2h5.4V31H51c1.1-2.6,3.8-4.4,6.6-4.4c0.6,0,1,0.1,1.2,0.2v5.3c-0.6-0.1-1.2-0.2-2-0.2
		c-4.1,0-5.6,2.8-5.6,6.6v9.3h-5.7V27.2z"/>
	<path class="st1" d="M58.8,42.2c0-2,0.6-3.4,1.8-4.4c1.3-1.1,3.2-1.7,6.7-2.1c3.7-0.4,5.3-0.7,5.3-2.6c0-2.4-1.7-2.8-3.6-2.8
		c-2.4,0-3.6,1-3.8,3.1h-5.7c0.2-4.5,4-6.9,9.8-6.9c6,0,9,2,9,5.9v10c0,1.4,0.2,1.6,1.4,1.6h0.2v3.7c-0.5,0.2-1.2,0.5-2.4,0.5
		c-2.6,0-4-0.8-4.4-2.7c-1.4,1.6-3.8,2.8-7.2,2.8C61.6,48.4,58.8,46.2,58.8,42.2z M72.6,40v-2.2c-0.5,0.5-1.5,0.8-3.4,1
		c-2.9,0.4-4.6,1-4.6,3.2c0,1.6,1,2.6,3.5,2.6C71,44.6,72.6,43,72.6,40z"/>
	<path class="st1" d="M81.7,27.2h5.4v2.6h0.1c1.4-2.2,3.5-3.2,6.2-3.2c6.3,0,9.4,5,9.4,11.1c0,5.7-3.1,10.7-9.1,10.7
		c-2.6,0-4.8-1.1-6.2-3.1h-0.1v9.8h-5.7V27.2z M97,37.6c0-3.2-1.2-6.7-5-6.7c-3.1,0-4.9,2.5-4.9,6.7c0,3.7,1.5,6.6,5,6.6
		C95.6,44.2,97,41.3,97,37.6z"/>
	<path class="st1" d="M105.1,19.3h5.7v10.8h0.1c1.3-2.1,3.6-3.4,6.1-3.4c5.2,0,7.5,2.6,7.5,8.3v12.9h-5.7V36.1c0-3.4-1-5-3.6-5
		c-3.5,0-4.4,2.3-4.4,5.9v10.8h-5.7V19.3z"/>
	<path class="st1" d="M127.7,21.8c0-1.8,1.4-3.2,3.2-3.2s3.2,1.4,3.2,3.2c0,1.8-1.4,3.2-3.2,3.2S127.7,23.6,127.7,21.8z M128,27.2
		h5.7v20.7H128V27.2z"/>
	<path class="st1" d="M136.6,37.8c0-6.6,4-11.2,10.6-11.2c5.3,0,9.4,2.9,9.7,7.8h-5.6c-0.4-2.4-1.8-3.6-4.2-3.6
		c-3.4,0-4.8,3.4-4.8,6.7c0,3.4,1.4,6.5,4.7,6.5c2.5,0,4.1-1.4,4.5-4.2h5.5c-0.8,5.4-4.4,8.5-10,8.5
		C140.6,48.4,136.6,43.8,136.6,37.8z"/>
	<path class="st1" d="M170.8,43.1V31h-3.4v-3.8h3.4V21h5.7v6.2h4.2V31h-4.2v10.2c0,1.9,0.5,2.4,2.4,2.4c0.6,0,1.3,0,1.8-0.2v4.4
		c-1,0.2-2.2,0.2-3.4,0.2C173,48.1,170.8,46.8,170.8,43.1z"/>
	<path class="st1" d="M181.3,37.6c0-6.2,4.3-10.9,10.6-10.9c6.5,0,10.1,5.1,10.1,11.2l0,1H187c0.2,3.6,1.8,5.2,5,5.2
		c2.2,0,4.1-1.2,4.5-2.7h5c-1.5,4.7-4.7,7-9.7,7C185.3,48.4,181.3,43.9,181.3,37.6z M196.2,35.3c-0.6-3.1-1.9-4.4-4.6-4.4
		c-2.8,0-4.4,1.7-4.7,4.4H196.2z"/>
	<path class="st1" d="M203.3,37.6c0-6.2,4.3-10.9,10.6-10.9c6.5,0,10.1,5.1,10.1,11.2l0,1H209c0.2,3.6,1.8,5.2,5,5.2
		c2.2,0,4.1-1.2,4.5-2.7h5c-1.5,4.7-4.7,7-9.7,7C207.3,48.4,203.3,43.9,203.3,37.6z M218.2,35.3c-0.6-3.1-1.9-4.4-4.6-4.4
		c-2.8,0-4.4,1.7-4.7,4.4H218.2z"/>
	<path class="st1" d="M225.3,41.2h5.4c0,2.3,2,3.5,4.4,3.5c1.9,0,3.7-0.8,3.7-2.6c0-1.5-1.8-2.2-6.2-3.2c-4.8-1-6.8-2.6-6.8-5.6
		c0-4.4,3.2-6.6,9-6.6c5.6,0,8.8,2.3,9.1,6.6h-5.4c-0.2-2-1.5-2.8-3.9-2.8c-2.2,0-3.2,0.7-3.2,1.9c0,1.3,1.2,2,4.4,2.6
		c4.2,0.8,5.8,1.4,7,2.5c1.1,1,1.6,2.2,1.6,3.7c0,5.3-4.6,7.2-9.4,7.2C229.4,48.4,225.5,46,225.3,41.2z"/>
</g>
<g>
	<path class="st1" d="M21.2,79.9c0-3.4,2.2-6.3,6.4-8.3c-2.1-2.5-2.7-4.2-2.7-6.1c0-3.8,3.4-6.5,7.5-6.5c4.2,0,7.8,2.3,7.8,6.8
		c0,3-1.7,5.3-5.1,7.1l3.7,4.5c0.5-0.9,0.9-2.1,1-3.4h4.9c-0.3,2.9-1.4,5.2-2.8,7l5.8,6.8h-7L38.4,85c-2.3,2.2-4.8,3.4-8,3.4
		C25.1,88.4,21.2,85.1,21.2,79.9z M35.4,81.2l-4.9-6c-2.6,1.1-4,2.7-4,4.7c0,2.1,2,3.8,4.1,3.8C32.3,83.8,33.8,83.1,35.4,81.2z
		 M35.2,65.5c0-1.5-1.2-2.7-2.6-2.7c-1.3,0-2.5,1-2.5,2.5c0,1.2,0.4,2.2,2.2,4.3C34.3,68.4,35.2,67.3,35.2,65.5z"/>
	<path class="st1" d="M58.7,59.3h5.7v28.6h-5.7V59.3z"/>
	<path class="st1" d="M66.5,77.6c0-6.2,4.3-10.9,10.6-10.9c6.5,0,10.1,5.1,10.1,11.2l0,1H72.2c0.2,3.6,1.8,5.2,5,5.2
		c2.2,0,4.1-1.2,4.5-2.7h5c-1.5,4.7-4.7,7-9.7,7C70.5,88.4,66.5,83.9,66.5,77.6z M81.4,75.3c-0.6-3.1-1.9-4.4-4.6-4.4
		c-2.8,0-4.4,1.7-4.7,4.4H81.4z"/>
	<path class="st1" d="M89.6,89.1h5.6c0.5,2,2,2.8,4.2,2.8c2.9,0,4.6-1.8,4.6-5v-2.8h-0.1c-1.1,2-3.4,3.2-6.2,3.2
		c-6,0-8.8-4.4-8.8-10.4c0-5.3,3.1-10.2,8.9-10.2c3,0,4.9,1.1,6.2,3.3h0.1v-2.8h5.4v19.4c0,5.4-3.1,9.1-10.7,9.1
		C93.9,95.7,89.8,93.3,89.6,89.1z M104,77.2c0-2.9-0.9-6.3-4.9-6.3c-2.9,0-4.6,2.5-4.6,5.9c0,3.4,1.3,6.2,4.6,6.2
		C102.2,83,104,80.5,104,77.2z"/>
	<path class="st1" d="M113,89.1h5.6c0.5,2,2,2.8,4.2,2.8c2.9,0,4.6-1.8,4.6-5v-2.8h-0.1c-1.1,2-3.4,3.2-6.2,3.2
		c-6,0-8.8-4.4-8.8-10.4c0-5.3,3.1-10.2,8.9-10.2c3,0,4.9,1.1,6.2,3.3h0.1v-2.8h5.4v19.4c0,5.4-3.1,9.1-10.7,9.1
		C117.4,95.7,113.2,93.3,113,89.1z M127.4,77.2c0-2.9-0.9-6.3-4.9-6.3c-2.9,0-4.6,2.5-4.6,5.9c0,3.4,1.3,6.2,4.6,6.2
		C125.7,83,127.4,80.5,127.4,77.2z"/>
	<path class="st1" d="M136.2,61.8c0-1.8,1.4-3.2,3.2-3.2s3.2,1.4,3.2,3.2c0,1.8-1.4,3.2-3.2,3.2S136.2,63.6,136.2,61.8z M136.6,67.2
		h5.7v20.7h-5.7V67.2z"/>
	<path class="st1" d="M145.7,67.2h5.4v2.9h0.1c1.4-2.2,3.7-3.4,6.4-3.4c5.2,0,7.5,2.6,7.5,8.4v12.9h-5.7V76.2c0-3.4-1-5-3.6-5
		c-3.5,0-4.4,2.3-4.4,6v10.8h-5.7V67.2z"/>
	<path class="st1" d="M168.4,89.1h5.6c0.5,2,2,2.8,4.2,2.8c2.9,0,4.6-1.8,4.6-5v-2.8h-0.1c-1.1,2-3.4,3.2-6.2,3.2
		c-6,0-8.8-4.4-8.8-10.4c0-5.3,3.1-10.2,8.9-10.2c3,0,4.9,1.1,6.2,3.3h0.1v-2.8h5.4v19.4c0,5.4-3.1,9.1-10.7,9.1
		C172.8,95.7,168.7,93.3,168.4,89.1z M182.9,77.2c0-2.9-0.9-6.3-4.9-6.3c-2.9,0-4.6,2.5-4.6,5.9c0,3.4,1.3,6.2,4.6,6.2
		C181.1,83,182.9,80.5,182.9,77.2z"/>
	<path class="st1" d="M190.8,81.2h5.4c0,2.3,2,3.5,4.4,3.5c1.9,0,3.7-0.8,3.7-2.6c0-1.5-1.8-2.2-6.2-3.2c-4.8-1-6.8-2.6-6.8-5.6
		c0-4.4,3.2-6.6,9-6.6c5.6,0,8.8,2.3,9.1,6.6H204c-0.2-2-1.5-2.8-3.9-2.8c-2.2,0-3.2,0.7-3.2,1.9c0,1.3,1.2,2,4.4,2.6
		c4.2,0.8,5.8,1.4,7,2.5c1.1,1,1.6,2.2,1.6,3.7c0,5.3-4.6,7.2-9.4,7.2C194.9,88.4,191,86,190.8,81.2z"/>
</g>
<g>
	<path class="st1" d="M21,121.2h5.4c0,2.3,2,3.5,4.4,3.5c1.9,0,3.7-0.8,3.7-2.6c0-1.5-1.8-2.2-6.2-3.2c-4.8-1-6.8-2.6-6.8-5.6
		c0-4.4,3.2-6.6,9-6.6c5.6,0,8.8,2.3,9.1,6.6h-5.4c-0.2-2-1.5-2.8-3.9-2.8c-2.2,0-3.2,0.7-3.2,1.9c0,1.3,1.2,2,4.4,2.6
		c4.2,0.8,5.8,1.4,7,2.5c1.1,1,1.6,2.2,1.6,3.7c0,5.3-4.6,7.2-9.4,7.2C25.1,128.4,21.2,126,21,121.2z"/>
	<path class="st1" d="M43.8,123.1V111h-3.4v-3.8h3.4V101h5.7v6.2h4.2v3.8h-4.2v10.2c0,1.9,0.5,2.4,2.4,2.4c0.6,0,1.3,0,1.8-0.2v4.4
		c-1,0.2-2.2,0.2-3.4,0.2C46,128.1,43.8,126.8,43.8,123.1z"/>
	<path class="st1" d="M55,122.2c0-2,0.6-3.4,1.8-4.4c1.3-1.1,3.2-1.7,6.7-2.1c3.7-0.4,5.3-0.7,5.3-2.6c0-2.4-1.7-2.8-3.6-2.8
		c-2.4,0-3.6,1-3.8,3.1h-5.7c0.2-4.5,4-6.9,9.8-6.9c6,0,9,2,9,5.9v10c0,1.4,0.2,1.6,1.4,1.6H76v3.7c-0.5,0.2-1.2,0.5-2.4,0.5
		c-2.6,0-4-0.8-4.4-2.7c-1.4,1.6-3.8,2.8-7.2,2.8C57.8,128.4,55,126.2,55,122.2z M68.7,120v-2.2c-0.5,0.5-1.5,0.8-3.4,1
		c-2.9,0.4-4.6,1-4.6,3.2c0,1.6,1,2.6,3.5,2.6C67.2,124.6,68.7,123,68.7,120z"/>
	<path class="st1" d="M78.1,107.2h5.4v3.8h0.1c1.1-2.6,3.8-4.4,6.6-4.4c0.6,0,1,0.1,1.2,0.2v5.3c-0.6-0.1-1.2-0.2-2-0.2
		c-4.1,0-5.6,2.8-5.6,6.6v9.3h-5.7V107.2z"/>
	<path class="st1" d="M96.3,123.1V111h-3.4v-3.8h3.4V101h5.7v6.2h4.2v3.8H102v10.2c0,1.9,0.5,2.4,2.4,2.4c0.6,0,1.3,0,1.8-0.2v4.4
		c-1,0.2-2.2,0.2-3.4,0.2C98.4,128.1,96.3,126.8,96.3,123.1z"/>
	<path class="st1" d="M107.7,101.8c0-1.8,1.4-3.2,3.2-3.2s3.2,1.4,3.2,3.2c0,1.8-1.4,3.2-3.2,3.2S107.7,103.6,107.7,101.8z
		 M108.1,107.2h5.7v20.7h-5.7V107.2z"/>
	<path class="st1" d="M117.2,107.2h5.4v2.9h0.1c1.4-2.2,3.7-3.4,6.4-3.4c5.2,0,7.5,2.6,7.5,8.4v12.9H131v-11.7c0-3.4-1-5-3.6-5
		c-3.5,0-4.4,2.3-4.4,6v10.8h-5.7V107.2z"/>
	<path class="st1" d="M140,129.1h5.6c0.5,2,2,2.8,4.2,2.8c2.9,0,4.6-1.8,4.6-5v-2.8h-0.1c-1.1,2-3.4,3.2-6.2,3.2
		c-6,0-8.8-4.4-8.8-10.4c0-5.3,3.1-10.2,8.9-10.2c3,0,4.9,1.1,6.2,3.3h0.1v-2.8h5.4v19.4c0,5.4-3.1,9.1-10.7,9.1
		C144.3,135.7,140.2,133.3,140,129.1z M154.4,117.2c0-2.9-0.9-6.3-4.9-6.3c-2.9,0-4.6,2.5-4.6,5.9c0,3.4,1.3,6.2,4.6,6.2
		C152.6,123,154.4,120.5,154.4,117.2z"/>
	<path class="st1" d="M172.6,122.2c0-2,0.6-3.4,1.8-4.4c1.3-1.1,3.2-1.7,6.7-2.1c3.7-0.4,5.3-0.7,5.3-2.6c0-2.4-1.7-2.8-3.6-2.8
		c-2.4,0-3.6,1-3.8,3.1h-5.7c0.2-4.5,4-6.9,9.8-6.9c6,0,9,2,9,5.9v10c0,1.4,0.2,1.6,1.4,1.6h0.2v3.7c-0.5,0.2-1.2,0.5-2.4,0.5
		c-2.6,0-4-0.8-4.4-2.7c-1.4,1.6-3.8,2.8-7.2,2.8C175.4,128.4,172.6,126.2,172.6,122.2z M186.4,120v-2.2c-0.5,0.5-1.5,0.8-3.4,1
		c-2.9,0.4-4.6,1-4.6,3.2c0,1.6,1,2.6,3.5,2.6C184.8,124.6,186.4,123,186.4,120z"/>
	<path class="st1" d="M197,123.1V111h-3.4v-3.8h3.4V101h5.7v6.2h4.2v3.8h-4.2v10.2c0,1.9,0.5,2.4,2.4,2.4c0.6,0,1.3,0,1.8-0.2v4.4
		c-1,0.2-2.2,0.2-3.4,0.2C199.1,128.1,197,126.8,197,123.1z"/>
	<path class="st1" d="M225.3,127.3c-5.3-0.4-8.2-3.3-8.8-8.8h5c0.2,2.9,1.4,4.4,3.8,4.6V116c-4.6-1.1-8.2-2.5-8.2-7.6
		c0-4.4,3.4-7.2,8.2-7.5v-2.7h2.1v2.7c4.8,0.5,7.7,3.1,7.9,7.5h-5c0-1.8-1.3-3.4-2.9-3.4v6.2c6.5,1.4,8.8,3.6,8.8,8.3
		c0,3.1-2.4,7.3-8.8,7.7v3h-2.1V127.3z M225.3,105.1c-1.8,0-3.2,1.1-3.2,2.9c0,1.6,1,2.3,3.2,2.8V105.1z M231.2,119.7
		c0-1.5-1-2.3-3.8-3.1v6.5C229.6,123,231.2,121.6,231.2,119.7z"/>
	<path class="st1" d="M250,121.4h-11.8v-5.2l12.2-16.3h5.1v16.8h3.7v4.7h-3.7v6.5H250V121.4z M250,116.7V107h-0.1l-7.2,9.7H250z"/>
</g>
<g>
	<path class="st1" d="M259.5,104.6l1.1-1.5l-1.7-0.6l0.4-1.2l1.7,0.7v-1.9h1.2v1.9l1.7-0.7l0.4,1.2l-1.8,0.6l1.1,1.5l-1,0.7
		l-1.1-1.5l-1,1.5L259.5,104.6z"/>
</g>
<g>
	<path class="st1" d="M22.3,165.2v-8.9h-2.2V155h2.2v-3.9h1.6v3.9h2.6v1.3h-2.6v8.8c0,1.1,0.3,1.6,1.4,1.6c0.3,0,0.7,0,1.2-0.1v1.3
		c-0.6,0.1-0.9,0.1-1.4,0.1C23,168,22.3,167.3,22.3,165.2z"/>
	<path class="st1" d="M28.2,150h1.6v7.2h0c0.6-1.5,2.3-2.6,4.1-2.6c3.3,0,4.7,1.6,4.7,4.9v8.3h-1.6v-8.1c0-2.6-1.1-3.8-3.3-3.8
		c-2.9,0-4,2.4-4,4.5v7.4h-1.6V150z"/>
	<path class="st1" d="M40.6,151.3c0-0.7,0.6-1.3,1.2-1.3c0.7,0,1.2,0.6,1.2,1.4c0,0.7-0.6,1.3-1.2,1.3S40.6,152,40.6,151.3z M41,155
		h1.6v12.9H41V155z"/>
	<path class="st1" d="M44.3,163.7h1.6c0.1,2,1.6,3.2,3.8,3.2c1.6,0,3.5-0.7,3.5-2.4c0-1.3-1-2-3-2.4l-1.7-0.4
		c-2.5-0.6-3.7-1.5-3.7-3.5c0-2.6,2.6-3.6,4.8-3.6c2.8,0,4.6,1.5,4.7,4.1h-1.6c0-1.8-1.4-2.8-3.4-2.8c-1.4,0-3,0.6-3,2.2
		c0,1.1,1,1.8,2.9,2.2l1.6,0.4c1.4,0.3,3.9,0.9,3.9,3.6c0,2.8-2.8,3.9-5.2,3.9C46.4,168.3,44.6,166.8,44.3,163.7z"/>
	<path class="st1" d="M61.5,155h1.7l3.3,11h0l3.1-11h1.8l3.1,11h0l3.3-11h1.7l-4.1,12.9h-1.7L70.5,157h-0.1l-3.1,10.8h-1.7L61.5,155
		z"/>
	<path class="st1" d="M79.6,161.4c0-3.5,1.8-6.8,5.8-6.8c3.6,0,5.7,2.9,5.7,6.9v0.4h-9.9c0,2.5,1.4,5.1,4.2,5.1c2.1,0,3.5-1.1,4-3.3
		h1.6c-0.7,3.1-2.6,4.6-5.6,4.6C81.6,168.3,79.6,165.4,79.6,161.4z M89.6,160.5c-0.1-2.4-1.6-4.6-4.1-4.6c-2.2,0-3.9,1.8-4.2,4.6
		H89.6z"/>
	<path class="st1" d="M92,161.4c0-3.5,1.8-6.8,5.8-6.8c3.6,0,5.7,2.9,5.7,6.9v0.4h-9.9c0,2.5,1.4,5.1,4.2,5.1c2.1,0,3.5-1.1,4-3.3
		h1.6c-0.7,3.1-2.6,4.6-5.6,4.6C93.9,168.3,92,165.4,92,161.4z M101.9,160.5c-0.1-2.4-1.6-4.6-4.1-4.6c-2.2,0-3.9,1.8-4.2,4.6H101.9
		z"/>
	<path class="st1" d="M105,150h1.6v11.2l7.1-6.2h2.1l-5.5,4.8l5.9,8.1h-2l-5.1-7l-2.5,2.1v4.9H105V150z"/>
	<path class="st1" d="M122.5,161.4c0-3.7,2.2-6.8,6.1-6.8c3.9,0,6.1,3.1,6.1,6.8c0,3.8-2.2,6.8-6.1,6.8S122.5,165.2,122.5,161.4z
		 M133.2,161.4c0-2.7-1.5-5.5-4.5-5.5c-2.9,0-4.5,2.7-4.5,5.5s1.6,5.5,4.5,5.5C131.6,166.9,133.2,164.2,133.2,161.4z"/>
	<path class="st1" d="M136.5,155h1.6v2.2h0c0.6-1.5,2.3-2.6,4.1-2.6c3.3,0,4.7,1.6,4.7,4.9v8.4h-1.6v-8.1c0-2.5-1-3.9-3.3-3.9
		c-2.8,0-4,2.2-4,4.5v7.4h-1.6V155z"/>
	<path class="st1" d="M149.3,150h1.6v17.8h-1.6V150z"/>
	<path class="st1" d="M153.1,172.5v-1.3c0.1,0,0.6,0.1,1.1,0.1c0.7,0,1.2-0.2,1.5-0.6c0.4-0.5,0.6-0.9,1.3-2.9l-5.1-12.8h1.7l4.2,11
		l4-11h1.6l-5.6,14.9c-0.3,0.7-0.7,1.6-1.2,2.1c-0.5,0.5-1.1,0.7-2.1,0.7C153.9,172.7,153.4,172.6,153.1,172.5z"/>
	<path class="st1" d="M164.4,166.5c0-0.8,0.7-1.5,1.4-1.5c0.7,0,1.4,0.7,1.4,1.5c0,0.8-0.6,1.5-1.4,1.5
		C165,168,164.4,167.3,164.4,166.5z M164.9,155.4V150h1.7v5.3l-0.4,8.1h-0.9L164.9,155.4z"/>
</g>
<g>
	<path class="st1" d="M20.5,225.3l0.6-0.8l-0.9-0.3l0.1-0.3l0.9,0.3v-1h0.3v1l0.9-0.3l0.1,0.3l-0.9,0.3l0.6,0.8l-0.3,0.2l-0.6-0.8
		l-0.6,0.8L20.5,225.3z"/>
	<path class="st1" d="M23,224.9h0.5v1h0c0.2-0.7,0.8-1,1.5-1h0.1v0.5H25c-0.9,0-1.5,0.6-1.5,1.5v2.2H23V224.9z"/>
	<path class="st1" d="M25.1,226.9c0-1.1,0.6-2.2,1.9-2.2c1.2,0,1.8,0.9,1.8,2.2v0.1h-3.2c0,0.8,0.4,1.6,1.4,1.6
		c0.7,0,1.1-0.4,1.3-1.1h0.5c-0.2,1-0.8,1.5-1.8,1.5C25.7,229.1,25.1,228.2,25.1,226.9z M28.3,226.6c0-0.8-0.5-1.5-1.3-1.5
		c-0.7,0-1.2,0.6-1.4,1.5H28.3z"/>
	<path class="st1" d="M29,227.7h0.5c0,0.7,0.5,1,1.2,1c0.5,0,1.1-0.2,1.1-0.8c0-0.4-0.3-0.6-1-0.8l-0.5-0.1
		c-0.8-0.2-1.2-0.5-1.2-1.1c0-0.8,0.8-1.2,1.6-1.2c0.9,0,1.5,0.5,1.5,1.3h-0.5c0-0.6-0.4-0.9-1.1-0.9c-0.5,0-1,0.2-1,0.7
		c0,0.4,0.3,0.6,0.9,0.7l0.5,0.1c0.4,0.1,1.2,0.3,1.2,1.2c0,0.9-0.9,1.2-1.7,1.2C29.7,229.1,29.1,228.6,29,227.7z"/>
	<path class="st1" d="M33.2,228.2v-2.9h-0.7v-0.4h0.7v-1.2h0.5v1.2h0.8v0.4h-0.8v2.8c0,0.4,0.1,0.5,0.5,0.5c0.1,0,0.2,0,0.4,0v0.4
		c-0.2,0-0.3,0-0.4,0C33.4,229,33.2,228.8,33.2,228.2z"/>
	<path class="st1" d="M35.1,224.9h0.5v1h0c0.2-0.7,0.8-1,1.5-1h0.1v0.5h-0.1c-0.9,0-1.5,0.6-1.5,1.5v2.2h-0.5V224.9z"/>
	<path class="st1" d="M37.4,223.7c0-0.2,0.2-0.4,0.4-0.4c0.2,0,0.4,0.2,0.4,0.4c0,0.2-0.2,0.4-0.4,0.4
		C37.5,224.1,37.4,223.9,37.4,223.7z M37.5,224.9H38v4.1h-0.5V224.9z"/>
	<path class="st1" d="M38.6,226.9c0-1.2,0.8-2.2,2-2.2c1,0,1.6,0.5,1.7,1.4h-0.5c-0.1-0.7-0.5-1-1.2-1c-1,0-1.4,0.9-1.4,1.8
		c0,0.9,0.5,1.8,1.4,1.8c0.6,0,1.1-0.5,1.2-1.2h0.5c-0.1,1-0.8,1.6-1.7,1.6C39.3,229.1,38.6,228.1,38.6,226.9z"/>
	<path class="st1" d="M43,228.2v-2.9h-0.7v-0.4H43v-1.2h0.5v1.2h0.8v0.4h-0.8v2.8c0,0.4,0.1,0.5,0.5,0.5c0.1,0,0.2,0,0.4,0v0.4
		c-0.2,0-0.3,0-0.4,0C43.3,229,43,228.8,43,228.2z"/>
	<path class="st1" d="M44.8,223.7c0-0.2,0.2-0.4,0.4-0.4c0.2,0,0.4,0.2,0.4,0.4c0,0.2-0.2,0.4-0.4,0.4
		C44.9,224.1,44.8,223.9,44.8,223.7z M44.9,224.9h0.5v4.1h-0.5V224.9z"/>
	<path class="st1" d="M46,226.9c0-1.2,0.7-2.2,2-2.2c1.3,0,2,1,2,2.2c0,1.2-0.7,2.2-2,2.2S46,228.1,46,226.9z M49.4,226.9
		c0-0.9-0.5-1.8-1.5-1.8c-0.9,0-1.4,0.9-1.4,1.8c0,0.9,0.5,1.8,1.4,1.8C48.9,228.7,49.4,227.8,49.4,226.9z"/>
	<path class="st1" d="M50.4,224.9h0.5v0.7h0c0.2-0.5,0.7-0.8,1.3-0.8c1.1,0,1.5,0.5,1.5,1.6v2.7h-0.5v-2.6c0-0.8-0.3-1.2-1-1.2
		c-0.9,0-1.3,0.7-1.3,1.5v2.4h-0.5V224.9z"/>
	<path class="st1" d="M54.3,227.7h0.5c0,0.7,0.5,1,1.2,1c0.5,0,1.1-0.2,1.1-0.8c0-0.4-0.3-0.6-1-0.8l-0.5-0.1
		c-0.8-0.2-1.2-0.5-1.2-1.1c0-0.8,0.8-1.2,1.6-1.2c0.9,0,1.5,0.5,1.5,1.3H57c0-0.6-0.4-0.9-1.1-0.9c-0.5,0-1,0.2-1,0.7
		c0,0.4,0.3,0.6,0.9,0.7l0.5,0.1c0.4,0.1,1.2,0.3,1.2,1.2c0,0.9-0.9,1.2-1.7,1.2C55,229.1,54.4,228.6,54.3,227.7z"/>
	<path class="st1" d="M60.2,224.9h0.5v0.7h0c0.3-0.6,0.7-0.8,1.4-0.8c0.6,0,1,0.3,1.2,0.8c0.2-0.5,0.7-0.8,1.3-0.8
		c0.9,0,1.4,0.5,1.4,1.4v2.8h-0.5v-2.8c0-0.7-0.3-1-1-1c-0.8,0-1.1,0.6-1.1,1.5v2.3h-0.5v-2.8c0-0.7-0.3-1-0.9-1
		c-0.8,0-1.2,0.6-1.2,1.5v2.3h-0.5V224.9z"/>
	<path class="st1" d="M66.5,227.9c0-0.5,0.2-0.8,0.4-0.9c0.3-0.2,0.6-0.3,1.6-0.4c0.6-0.1,0.9-0.1,0.9-0.6c0-0.6-0.4-0.8-1.1-0.8
		c-0.7,0-1.1,0.3-1.1,1h-0.5c0.1-0.9,0.6-1.4,1.7-1.4c1.1,0,1.5,0.5,1.5,1.3v2.2c0,0.2,0.1,0.3,0.3,0.3c0.1,0,0.1,0,0.2,0v0.4
		c-0.1,0-0.2,0-0.3,0c-0.4,0-0.6-0.2-0.6-0.7v0h0c-0.4,0.6-0.8,0.8-1.5,0.8C67,229.1,66.5,228.7,66.5,227.9z M69.3,227.4v-0.7h0
		c-0.1,0.1-0.2,0.2-0.5,0.2c-0.2,0-0.8,0.1-1,0.2c-0.4,0.1-0.8,0.3-0.8,0.8c0,0.5,0.4,0.8,0.9,0.8C68.7,228.7,69.3,228.2,69.3,227.4
		z"/>
	<path class="st1" d="M70.5,230.5v-0.4c0,0,0.2,0,0.3,0c0.2,0,0.4-0.1,0.5-0.2c0.1-0.2,0.2-0.3,0.4-0.9l-1.6-4.1h0.5l1.4,3.5
		l1.3-3.5h0.5l-1.8,4.8c-0.1,0.2-0.2,0.5-0.4,0.7c-0.2,0.2-0.4,0.2-0.7,0.2C70.7,230.5,70.6,230.5,70.5,230.5z"/>
	<path class="st1" d="M75.8,227.9c0-0.5,0.2-0.8,0.4-0.9c0.3-0.2,0.6-0.3,1.6-0.4c0.6-0.1,0.9-0.1,0.9-0.6c0-0.6-0.4-0.8-1.1-0.8
		c-0.7,0-1.1,0.3-1.1,1H76c0.1-0.9,0.6-1.4,1.7-1.4c1.1,0,1.5,0.5,1.5,1.3v2.2c0,0.2,0.1,0.3,0.3,0.3c0.1,0,0.1,0,0.2,0v0.4
		c-0.1,0-0.2,0-0.3,0c-0.4,0-0.6-0.2-0.6-0.7v0h0c-0.4,0.6-0.8,0.8-1.5,0.8C76.4,229.1,75.8,228.7,75.8,227.9z M78.7,227.4v-0.7h0
		c-0.1,0.1-0.2,0.2-0.5,0.2c-0.2,0-0.8,0.1-1,0.2c-0.4,0.1-0.8,0.3-0.8,0.8c0,0.5,0.4,0.8,0.9,0.8C78,228.7,78.7,228.2,78.7,227.4z"
		/>
	<path class="st1" d="M80,224.9h0.5v0.8h0c0.2-0.6,0.8-0.9,1.5-0.9c1.2,0,1.9,1,1.9,2.2c0,1.3-0.7,2.2-1.8,2.2
		c-0.7,0-1.2-0.3-1.4-0.9h0v2.3H80V224.9z M83.3,226.9c0-0.8-0.4-1.8-1.4-1.8c-0.9,0-1.4,0.6-1.4,1.8c0,0.9,0.4,1.8,1.4,1.8
		C82.9,228.7,83.3,227.8,83.3,226.9z"/>
	<path class="st1" d="M84.4,224.9h0.5v0.8h0c0.2-0.6,0.8-0.9,1.5-0.9c1.2,0,1.9,1,1.9,2.2c0,1.3-0.7,2.2-1.8,2.2
		c-0.7,0-1.2-0.3-1.4-0.9h0v2.3h-0.5V224.9z M87.7,226.9c0-0.8-0.4-1.8-1.4-1.8c-0.9,0-1.4,0.6-1.4,1.8c0,0.9,0.4,1.8,1.4,1.8
		C87.3,228.7,87.7,227.8,87.7,226.9z"/>
	<path class="st1" d="M88.8,223.3h0.5v5.7h-0.5V223.3z"/>
	<path class="st1" d="M90,230.5v-0.4c0,0,0.2,0,0.3,0c0.2,0,0.4-0.1,0.5-0.2c0.1-0.2,0.2-0.3,0.4-0.9l-1.6-4.1h0.5l1.4,3.5l1.3-3.5
		h0.5l-1.8,4.8c-0.1,0.2-0.2,0.5-0.4,0.7c-0.2,0.2-0.4,0.2-0.7,0.2C90.3,230.5,90.1,230.5,90,230.5z"/>
</g>
</svg>
